<mxfile host="app.diagrams.net" modified="2022-06-08T23:57:46.256Z" agent="5.0 (Macintosh; Intel Mac OS X 10_15_7) AppleWebKit/605.1.15 (KHTML, like Gecko) Version/15.4 Safari/605.1.15" etag="YccUkFr0xEQlYVVqzDS3" version="19.0.2" type="github">
  <diagram id="1hVeR-lYXyTkP9eCaR1s" name="Page-1">
    <mxGraphModel dx="1186" dy="718" grid="0" gridSize="10" guides="1" tooltips="0" connect="1" arrows="1" fold="1" page="1" pageScale="1" pageWidth="827" pageHeight="1169" background="#ffffff" math="0" shadow="0">
      <root>
        <mxCell id="0" />
        <mxCell id="1" parent="0" />
        <mxCell id="VVkOHHsC4mun2wqV-mM1-1" value="" style="shape=image;verticalLabelPosition=bottom;labelBackgroundColor=default;verticalAlign=top;aspect=fixed;imageAspect=0;image=data:image/png,iVBORw0KGgoAAAANSUhEUgAAAN4AAAAuCAYAAABH9aeuAAAMaWlDQ1BJQ0MgUHJvZmlsZQAASImVVwdYU8kWnluSkJDQAqFICb0JIr1ICaFFEJAq2AhJIKHEmBBU7MqigmsXUaxYEUVXV0AWFbGXRbH3xYKKsi4WFEXlTQrouq9873zf3Plz5sx/yp3JnQFAu5crkeShOgDkiwukCZGhzDFp6UzSU0AAFGAI/IEulyeTsOLjYwCUgf7v8v4GQBT9VRcF1z/H/6vo8QUyHgDIOIgz+TJePsTNAODreRJpAQBEhd56SoFEgedArC+FAUK8SoGzVXiXAmeqcJPSJimBDfFlADSoXK40GwCte1DPLORlQx6tzxC7ifkiMQDaQyEO4gm5fIgVsQ/Nz5+kwBUQO0B7CcQwHuCb+R1n9t/4Mwf5udzsQazKSykaYSKZJI877f8szf+W/Dz5gA872KhCaVSCIn9Yw1u5k6IVmApxlzgzNk5Ra4h7RXxV3QFAKUJ5VLLKHjXlydiwfoABsRufGxYNsSnEEeK82Bi1PjNLFMGBGK4WdKqogJMEsRHECwWy8ES1zWbppAS1L7QuS8pmqfVnuVKlX4WvB/LcZJaa/41QwFHzY1pFwqRUiCkQ2xSKUmIh1oLYVZabGK22GVEkZMcO2EjlCYr4bSBOEIgjQ1X8WGGWNCJBbV+aLxvIF9ssFHFi1fhAgTApSlUf7CSPq4wf5oJdFohZyQM8AtmYmIFc+IKwcFXu2HOBODlRzdMrKQhNUM3FKZK8eLU9biXIi1TorSD2lBUmqufiKQVwcar48SxJQXySKk68KIc7Ml4VD74MxAA2CANMIIctE0wCOUDU2lXfBX+pRiIAF0hBNhAAF7VmYEaqckQMn4mgCPwJkQDIBueFKkcFoBDqvwxqVU8XkKUcLVTOyAVPIc4H0SAP/pYrZ4kHvaWAJ1Aj+od3Lmw8GG8ebIrxf68f0H7TsKAmRq2RD3hkag9YEsOJYcQoYgTRETfBg/AAPAY+Q2Bzx31xv4E8vtkTnhLaCI8I1wnthNsTRfOkP0Q5CrRD/gh1LTK/rwVuBzm98FA8ELJDZpyBmwAX3BP6YeHB0LMX1LLVcSuqwvyB+28ZfPc21HZkNzJKNiSHkB1+nKnlpOU1yKKo9ff1UcWaOVhv9uDIj/7Z31WfD/voHy2xhdhB7Ax2HDuHNWH1gIkdwxqwi9gRBR5cXU+Uq2vAW4IynlzII/qHv4E3q6ikzK3GrdPts2qsQDC1QLHx2JMk06SibGEBkwW/DgImR8xzHcp0d3N3B0DxrVH9fb1lKL8hCOP8N918HwACi/v7+5u+6aK3A3AwDW7/a9909h/hf7Q1AGc38uTSQpUOVzwU3zBtuNOMgTmwBg4wH3fgDQJACAgHI0EcSAJpYAKMXgjXuRRMATPAXFACysAysBqsA5vAVrAL7AUHQD1oAsfBaXABXAbXwV24ejrAS9AN3oM+BEFICA2hI8aIBWKLOCPuiC8ShIQjMUgCkoZkINmIGJEjM5D5SBmyAlmHbEGqkV+Qw8hx5BzShtxGHiKdyBvkE4qhVFQfNUPt0GGoL8pCo9EkdDyajU5Gi9BidAlagVahe9A69Dh6Ab2OtqMv0R4MYJoYA7PEXDBfjI3FYelYFibFZmGlWDlWhdVijfA9X8XasS7sI07E6TgTd4ErOApPxnn4ZHwWvhhfh+/C6/CT+FX8Id6NfyXQCKYEZ4I/gUMYQ8gmTCGUEMoJOwiHCKfgXuogvCcSiQyiPdEH7sU0Yg5xOnExcQNxH7GZ2EZ8TOwhkUjGJGdSICmOxCUVkEpIa0l7SMdIV0gdpF4NTQ0LDXeNCI10DbHGPI1yjd0aRzWuaDzT6CPrkG3J/uQ4Mp88jbyUvI3cSL5E7iD3UXQp9pRAShIlhzKXUkGppZyi3KO81dTUtNL00xytKdKco1mhuV/zrOZDzY9UPaoTlU0dR5VTl1B3Upupt6lvaTSaHS2Elk4roC2hVdNO0B7QerXoWq5aHC2+1mytSq06rStar7TJ2rbaLO0J2kXa5doHtS9pd+mQdex02DpcnVk6lTqHdW7q9OjSdYfrxunm6y7W3a17Tve5HknPTi9cj69XrLdV74TeYzpGt6az6Tz6fPo2+il6hz5R316fo5+jX6a/V79Vv9tAz8DTIMVgqkGlwRGDdgbGsGNwGHmMpYwDjBuMT4ZmhixDgeEiw1rDK4YfjIYYhRgJjEqN9hldN/pkzDQON841Xm5cb3zfBDdxMhltMsVko8kpk64h+kMChvCGlA45MOSOKWrqZJpgOt10q+lF0x4zc7NIM4nZWrMTZl3mDPMQ8xzzVeZHzTst6BZBFiKLVRbHLF4wDZgsZh6zgnmS2W1pahllKbfcYtlq2Wdlb5VsNc9qn9V9a4q1r3WW9SrrFutuGwubUTYzbGps7tiSbX1thbZrbM/YfrCzt0u1W2BXb/fc3sieY19kX2N/z4HmEOww2aHK4Zoj0dHXMddxg+NlJ9TJy0noVOl0yRl19nYWOW9wbhtKGOo3VDy0auhNF6oLy6XQpcbloSvDNcZ1nmu966thNsPShy0fdmbYVzcvtzy3bW53h+sNHzl83vDG4W/cndx57pXu1zxoHhEesz0aPF57OnsKPDd63vKie43yWuDV4vXF28db6l3r3elj45Phs97npq++b7zvYt+zfgS/UL/Zfk1+H/29/Qv8D/j/FeASkBuwO+D5CPsRghHbRjwOtArkBm4JbA9iBmUEbQ5qD7YM5gZXBT8KsQ7hh+wIecZyZOWw9rBehbqFSkMPhX5g+7NnspvDsLDIsNKw1nC98OTwdeEPIqwisiNqIrojvSKnRzZHEaKio5ZH3eSYcXicak73SJ+RM0eejKZGJ0avi34U4xQjjWkchY4aOWrlqHuxtrHi2Po4EMeJWxl3P94+fnL8b6OJo+NHV45+mjA8YUbCmUR64sTE3Ynvk0KTlibdTXZIlie3pGinjEupTvmQGpa6IrV9zLAxM8dcSDNJE6U1pJPSU9J3pPeMDR+7emzHOK9xJeNujLcfP3X8uQkmE/ImHJmoPZE78WAGISM1Y3fGZ24ct4rbk8nJXJ/ZzWPz1vBe8kP4q/idgkDBCsGzrMCsFVnPswOzV2Z3CoOF5cIuEVu0TvQ6JypnU86H3Ljcnbn9eal5+/I18jPyD4v1xLnik5PMJ02d1CZxlpRI2if7T149uVsaLd0hQ2TjZQ0F+vBQf1HuIP9J/rAwqLCysHdKypSDU3WniqdenOY0bdG0Z0URRdun49N501tmWM6YO+PhTNbMLbOQWZmzWmZbzy6e3TEncs6uuZS5uXN/n+c2b8W8d/NT5zcWmxXPKX78U+RPNSVaJdKSmwsCFmxaiC8ULWxd5LFo7aKvpfzS82VuZeVlnxfzFp//efjPFT/3L8la0rrUe+nGZcRl4mU3lgcv37VCd0XRiscrR62sW8VcVbrq3eqJq8+Ve5ZvWkNZI1/TXhFT0bDWZu2ytZ/XCdddrwyt3LfedP2i9R828Ddc2RiysXaT2aayTZ82izbf2hK5pa7Krqp8K3Fr4dan21K2ndnuu716h8mOsh1fdop3tu9K2HWy2qe6erfp7qU1aI28pnPPuD2X94btbah1qd2yj7GvbD/YL9//4peMX24ciD7QctD3YO2vtr+uP0Q/VFqH1E2r664X1rc3pDW0HR55uKUxoPHQb66/7WyybKo8YnBk6VHK0eKj/ceKjvU0S5q7jmcff9wyseXuiTEnrp0cfbL1VPSps6cjTp84wzpz7Gzg2aZz/ucOn/c9X3/B+0LdRa+Lh373+v1Qq3dr3SWfSw2X/S43to1oO3ol+Mrxq2FXT1/jXLtwPfZ6243kG7dujrvZfot/6/ntvNuv7xTe6bs75x7hXul9nfvlD0wfVP3h+Me+du/2Iw/DHl58lPjo7mPe45dPZE8+dxQ/pT0tf2bxrPq5+/OmzojOyy/Gvuh4KXnZ11Xyp+6f6185vPr1r5C/LnaP6e54LX3d/2bxW+O3O995vmvpie958D7/fd+H0l7j3l0ffT+e+ZT66VnflM+kzxVfHL80fo3+eq8/v79fwpVylUcBDDY0KwuANzsBoMGzAx3e2yhjVXdBpSCq+6sSgf+EVfdFpXgDUAs7xTGe3QzAftjs5iivKkBxhE8KAaiHx2BTiyzLw13FRYU3IUJvf/9bMwBIjQB8kfb3923o7/+yDQZ7G4Dmyao7qEKI8M6wOUSBrhvx54AfRHU//S7HH3ugiMAT/Nj/C7kJj1l3vOiDAAAAimVYSWZNTQAqAAAACAAEARoABQAAAAEAAAA+ARsABQAAAAEAAABGASgAAwAAAAEAAgAAh2kABAAAAAEAAABOAAAAAAAAAJAAAAABAAAAkAAAAAEAA5KGAAcAAAASAAAAeKACAAQAAAABAAAA3qADAAQAAAABAAAALgAAAABBU0NJSQAAAFNjcmVlbnNob3SNSUW9AAAACXBIWXMAABYlAAAWJQFJUiTwAAAB1WlUWHRYTUw6Y29tLmFkb2JlLnhtcAAAAAAAPHg6eG1wbWV0YSB4bWxuczp4PSJhZG9iZTpuczptZXRhLyIgeDp4bXB0az0iWE1QIENvcmUgNi4wLjAiPgogICA8cmRmOlJERiB4bWxuczpyZGY9Imh0dHA6Ly93d3cudzMub3JnLzE5OTkvMDIvMjItcmRmLXN5bnRheC1ucyMiPgogICAgICA8cmRmOkRlc2NyaXB0aW9uIHJkZjphYm91dD0iIgogICAgICAgICAgICB4bWxuczpleGlmPSJodHRwOi8vbnMuYWRvYmUuY29tL2V4aWYvMS4wLyI+CiAgICAgICAgIDxleGlmOlBpeGVsWURpbWVuc2lvbj40NjwvZXhpZjpQaXhlbFlEaW1lbnNpb24+CiAgICAgICAgIDxleGlmOlBpeGVsWERpbWVuc2lvbj4yMjI8L2V4aWY6UGl4ZWxYRGltZW5zaW9uPgogICAgICAgICA8ZXhpZjpVc2VyQ29tbWVudD5TY3JlZW5zaG90PC9leGlmOlVzZXJDb21tZW50PgogICAgICA8L3JkZjpEZXNjcmlwdGlvbj4KICAgPC9yZGY6UkRGPgo8L3g6eG1wbWV0YT4KVTgYwgAAABxpRE9UAAAAAgAAAAAAAAAXAAAAKAAAABcAAAAXAAANMfLfSH4AAAz9SURBVHgB7JoHWBVXFsf/D6R/FlREioiKmmzEKETdjYVmiSWJsSGi0ZiNMUXdWBMj0ViixhJrTFuTYEtRFFCjWMC2XywxMXFjWVgrWOiKiKCw55x585jHBzxA1G/95hJn7tz65sz93VNuDO3aP1sEPekS0CXwUCVg0MF7qPLWJ9MlIBLQwdMXgi6BRyABHbxHIHR9Sl0COnj6GtAl8AgkoIP3CISuT6lLwCJ4qxysYDAYRFJ8lxzfTf9AZVQq/ynlVCnt1DZmdTSSUi4ZbsoZuXO5PKljU3n/i9elTL/oEnicJGARvE/tFZjMoDCCIoAJJCp8xcBJHUlKha8YMKWN0lcacJYzcjebhyoGXEzlSj3pEnisJGAZPDtRZSaA+O0FpocE38BLaY+VwPWX0SXAErAI3ko70UV8eSTwDbqcrn8pXQKPnQQsgrfCloGrAHxMMf+zJp9QoVR5ls7FJqihiP5HGSozWCm+I/eRZ+msmJs8ktLNAB08FpCeHjcJVAg8fuky4TPW2dR3hZWdAwquXta0LQZOgcsAG3dPFN3JQ2F6mtLOyloAVeqVwXguFb7Q5Ax+0JMugcdKAhbBW27DGkow0AAlRSIIW1c31AkIgnNQEO4kJyN5wTygqFDTthg+g7U1Go6fDDsPD9zYvx+3/nUA91KvK20NVjSoUeOpd5p4cMqDAc/e3h7t2vnDx8cH0dGxyMgof56nnvoLnnnGH0Wksc+dO2e2CE6dOo20tLJNYnd3NzRr1hS3b+fh2LFfzPpW9MHRwQGhoQPRokVzuLq64sqVqzh67BgOHjxU7twVHV9v93AlYBm8GoUCREn4BLiQbqjl3xa3E5Nw5+JFOLV5GimLFgCF94gho7koHY3w1aiBhu9MQO4fJ2HXyAv2TZsg98TvuHUgQQGQ312FzngfnJL5QCTy1pujMXz4MBn76NFjeOvtceXOs3PHVjg7O5fZhqH689QpTBg/Cbm3b5u1W7hwPrp07oTCwkL89W+dzeoq8jB79ofoGhIMKzLPS0uXLl3Cq39/HVlZ2aVVV6mMAXepXx+paWk4e/Y/VRpD71S2BCyCt8xa0V6KWiIu6M85uDtc+vRG7tmzyNgVhzvnEuHQrAVcBg1C8mIC754KnhY+wMq6BlwJvMyoKBScS4Jtk2aoFdwVDj7NkL1rF3IPxMv4WvjCrjwY8H7aHoN69eqJZO7R7+3YKVDAKEtUlsBT+6Wnp2PAwDDcunVLLUJVwbO1tcG6tZFo3NjLNFZeXh6ys2/AwcEeNWvWlA2OK/PzCzB+wiQcOXLU1PZ+MrExm0mzNsC1a9fx/Asv3c9Qet9SJGARvKXWBBH/mYIfBnhNnIIbR48ie/9eqmEYAYfmT8JlwAAkL/pYNB7Zm9SH/Te+U38rakX+nBtphMzoLchPPKOUU50TLXonf3+krViqlPEPNWq8sKtZ/FStqUkTb3z/3TqzMefNX4CoqC1mZdoHFbxLly+jf/9QU5WTkxPakKafOOEdeHi4S3lS0n8RNkTRplxQVfDUfjxGfn4+Ij6Ygfj4ffwoicGbPn2aaFMu4DZdAkLK3UCUnpavOniWZXQ/LSoA3l0aX9BjFggeAxqTn5a+Mw63Tv5K5o81FRbB0acl3Ea+iuTly3A3OxO27h64e/UKatSsBYONDe5RMMXWyxsNhg9H6ppI5Cf9hyKgBCaZpfa+bVA7OARpny6Xd1HOCXlaA4Zcq37wPpozC127BpNivkfaIxt169bF+fPnMSg0XOYv7VIWeNq2MdFRaNjQVRb+sx0DTACoAFXG1GxFPuXq1V/K8OxXjnr9TZwgs7y09MP36+Dt7S1VS5etwLp1G0prJmX8rvb2dkhJuVJmG66oDHhsAnt6eiAzMws3b94sd9wHVdnI0xM3aG7+nv8PySJ4S6zuKsCp8BF4XhMmIyOOwPvjOGkyAo8WhoNPCzSdPgNXIteQD3eCtN8gpEdtgkMrX9SoXRs3E/aifvhQ1PLzw6V5c8nUTDT2LYSDb1syOYMIvBWiIQV0oRwIv179gty/bw8tPnscP/4rTp85iyFhoRI06d6jd5kfriLg9evXF+9OmSTffczYd3D48BHJVwW8xWQ5dOrUUfpXBKatsZtRg3zozMxM9Hiuj9naY038CbkAnrQ4uQ0n3nQ4IBQRMR2/aYBevz4STZs0MfMnecPgFBu7DXM+ouCZMXFgatbM6RI4Ust44fN4c+d+bBawmjt3NoICA8QED+n6nNpc7h06tMfSJYskP3/+QmzeEm1WH71lowSUfvvtBEa/8baprmPHZxEx7T3xvXmz5sQm94ULF8hnH2vm86pjsCvQu09f0xjazI8/bECjRp4or422/f3kLYL3iaGAwDOamgwf5RsTeOlxu8zAc2r+BFxCQ3F50XzgLsFK/hxt+WJiilAITitbO7iTj5e+aRNpPDI1BVoCr3Vb1A4KRippPBafIkNlruoGL6BLZyzgyCulSZPexR8n/40dP8XKM2sKXuSlpYqA5+/vh1VGrb3qsy/w9dffylBVAW9fwh7x4woKCsT/LO03actY07LPmpubS1HX86aq9u3bYdnSxWYgmSopw1BNnRqBvfEJUhwdvQluDRtqm5jyu3fvxdT3I+SZNWcMtbW1pYPeUhJHiV94sZ+AwNUckZ0w/h/S8sW+AygqW6xx58yeiW7dQqSOoR016g3J84XHP0i+P6e169Zj2bKVktcGx6SgxIUDXGFhw0zzfBDxPvr06SWtBoUOIQvnglkPZ+c62Lljm5Rp39OsUTU+VAC8fJpOgYCBMFDYX8AjUzOHNR6biwSVI/l4DQYNxKUFBB4fJ3A5/dUODEHe6T+Rn5IMK9pt3SkAkLE5CncSz5pMTYfWfmRqBuP6ymVG8Hg+fksDhqbeqMbXBf751efw9W0lC6JT50AZe8vmjeCQf2naQp28IuC98spwvDF6lHQJHRxuAqAq4B05fEjG4QXKC7WqadPG72gXbyTdeeHGxGwVbT+gfz88/3xv2UjZ7Oz7kjIH+6x2dnYU1PlGQObdP3zoCOmfk3NT5MZBHzarGT5OfBzz48ZNcHR0xPCXh4I1EaczZE0Me/kVyfO48XvjJP/Z51+SGf2N5Pmiypbz7Kd26hzEWUk9unfDrFkzJM++NfvYDGNC/C7R3rwxLVq8BAkJ++Hb6ikMJuvF36+ttI+J3YrZs+dK3s3NDaz1OMVu3UZjfiR59aIFWfvt1PrqvlsEbzHyTRAomo80HgVXxMf7/RdFsxFoThxcIfCSly5Bvd59cJdC22xyehJouafP4N6NbGTt/AnuY8YhncAzaTzacVnj1QkJEfDYbFXnYQqHpVafz8ALZv++vbL78/nXeNLcnEaOHIHRr78m+SHhw5GYmCh57UVdHCWDK2obXlgcKWUTtqSWqix4DRo0AJuOnA4cOIQJE5Xfqc5VmTubmPybDhw4iPUbvjfrum7tt2je3Ee0XsljjvJ8PK32YoAYJG1avnwJOpCm5dTjud7i+3F++7YY1K9fDyfJyhj5qrJBcYBoz+4dXC3mPn977TeYN28OgoMC5YgmMLCrtPP2bowpkydK/suvVovLIA/Gy0E6nuJvnZycgpf6DTRVqdqczeFu3RXtp1aqdbzR9Oz1glr8wO4WwVuEO7T+izUQazxvAW8ncn4/ToFKawqtEHg+pPEGDsTtpCTU694d52bOgGOLJ1GTdp808vUav/seMveQb0UHyRlbNpPGI1OT+rI56qjRePymxJsJvmFp1QfesKFDMGbMWyLM18icUYMVfDgdTzsof/SEhH2YPGWqtNFeVPDYh3hv6vumKj7ba+3ri549e8CGgkicSpoqlQXviSdaIvLb1TLWmrXrsXy5Yl5JAV1atmyBr1ebL3a1jgMxfDRSkRQeHoZxYxWfSQsI9y0PPDbV2WRnWahWg3Y+rXZhjcOah9OHMz4QOfGZZwBZQpzU38D+JpvJXl6NsHFjFD5eoPh8KqwVOWuVAeny2aoV8KN1x+amCivXaS0SrblZp05txO3cLt0jI9dixcpVkn+QF4vgLSzKUyBQ4SPwmhB4aRzVZI1nxc46wUMaz5XAS9u+HR4jRiA1Npag88PN48fF52vQrx+uRkaibq+epPGKwTOQtuTgCmu8a3ycwG9LAKjwvZyeU23vr5qU/IEDg7qZjbth/RoJEpQ0ddRGKnjqc1n3n38+jLHjxptVVxY83q151+a0Z89eAl3xq6SALm2ebo0vvih7cbTv0FFtKnfWeBzFDQjoIofirJ0dHR3g4uJialcZ8FTtwJ0vXLhoGkObUc8e43btxrRp06WKYWAoOHGAIzU1VSK3HMHdunU7MrOywJujavpyIOjQwQRZfzNnzZE20tl4Ye3Zi9ZT+3bPoDYF8BydHMGbqHo+WxI8NlE5sMZRWK25qZqZvGlx4Ccnp/rWnPb3avP/AwAA//+x/na9AAALzklEQVTtmQlUVdUax//3CogiIo7gE4f0leWUZloBCoriq3zqaiB5haBG2bRqvSyxyZhEUZSwVZpJ6islJWfFcmplb6Uv65Wly3lAAwHhEqOM7/u+e8/h3Btw6SnIkrNh3bvP3t/eZ5/v7N/+f3tfw70jHqhGPWlRVSlgoH+Dgb7oj777zJ6DnLTdKDz6AwzGVjBUV6Ht7Xei2+NBuLAgFq09e6BN337oPPFhpMcvRKv27YHyCpRnXkaP2a/jamoqSs+cqGk7aBg6BIxFZlIi3aFa7kEffFtMyy2qZ3QNr+ratSu2b9ukNqiqqlLznDEajep1xNy3sHfvPvWaM7vTtsPd3d2qTLkoLS3FmTNnsf/A11iz5l9Ksfq9aNECjPL1Ad/zvvt91fL6Mt8ePABHR0ecOHEST4WEWZm2bdMGAePGWpU9EfQY+vXrJ2UjRnqrdb6+3oibHyN9qYW1ZAInPIS8PJNas23rJnTr1hVXrmRh4t+nqOWcOfjNATg5OVqV1XVx7NhxhIbNVKv//e3XcHBwwLL3PxBfKX1Nn/40cvPysHnTRlRXV8Pbx098FhcXI9e+o/xRVlau9vP8c89i2rSn1OvaMsUlJfDzC7CqSl71EQYMuAv5+fkYN/5BqduyJRWeHh44feYMgoNDrOwb68JgD7z4qhK6NwNngc9gRJ9XFfCOwNiqFVBVbQYvKAgXF85HdXkZWnv8Be2G3A3T/j1UXykwGRyd4PXqawJeyekT5slOTm47eCg6jA3AlWVL5TkZOAacbxp6g8CLiHgNUyZPapAff/31GMJoImiTAl76pUt45JEgbZXd/P8D3o4dW9Clc2eZbH7+AaioqKj3Psrk0U62Dh3c8OXundKOJ3NmZia+O3QY6RcvITc3FyNG3osH/zZB6v8MeLt2bkWnTp1QWVmJhITEWsfl1NoJZdfKcOrUKfz3p59Vm7VrknHHHbdLWWJiEhgEBsrH109s9u/7Ei4uLnhnXiR8vL0xjhaYDBr3pEmPqH3we+T3yYnHcPbsORw6fBhZV7JxNfcqnn9uFrp394TWF0rjMf5+YJg5PR4UDJPJpPooOmY+tm7drpg26rdd8BZWlgh0NfAZcdvsCFK8NBT+TIrH4JHiubDiPTGVwItDdWW5qBkt8VRvZGzpIaphdGoNr3/ORs6GDSgl8Fgtpe1gRfGWiiXfUIEvNK/4hjhg757dcHVtJ6rzwosv19pndNQ8dOzY0bLCjqEJUabaNTV48+a9pULx6afrkPjeMnUsthlWEFZIXqxYeacGm5UgJORJvPD8LDFfsuQ9rFufYtVUuxj9GfCSkpZi5Ih7wUo/avRYqz7tXYSFTcOsZ8NRXFyMr77aS0BNxNGjv2DGzGekacLihfDx8cZ33x1C3763oUuXLvhi02aCJV7t+qMVH2DIkMFyPWnyo8jIyFDrOJOamgKvHj1qBY/rD36znxTbCdu278DVq7kIJeXkhc3H11/mB9s0dmoQeDwIFiAzfAb0fS0C2bs41DxSEy7264+/RkXh0ierUfjTj/AImoqsjSlwGTgEjrTymvbtgUdIKNyG34NzUdG4dvaUQMlwugwZBveAAGTQC5VQk7GzwBdmYsW9vnQ3vaQV9LI4bdz4BRbGL661Q15dY6Ijpe6DD1cgOXm1atfU4Dk7O2PvnjQJEXlVf/GlV/D990fU8SgZnkDr1q2VicZlK1asxMqPk6U6OvpdjB9nDrVYpVmtlcShddqu7WBV5FQXeFo1Utoq8PD14oSlSEnZoFTJN/c5n8LbVrQor1+Xgn37D6j1vLCl7dom1yZTvtx/0aIEfL4hVcr8/UdjQVysgNmGQmpeTDjU5pBbSTu2bxYgeWFkWLSJtxTbtn4h7WpTPLZlxWPl43CTbTjMPHT4P3ixjgVZ2/+NytsFb0EFKQ5zwH/Cg1nxsi2KZyRFU0JNr/BwXEhYjMr8PDjRPq888zc4uLrBQHuVitwcOPfsje4zZiAzORklsscjNZRQcxg6CnhL5LnkPnJTA6bfAPCS3luCkSNHSN8PPTwZ2dnZdfpP2VvZhjdNDR4P8JnwmZgxI0zGyqFiauombNiYinPnzosyB4z1R2joNHTu3ElsbMesDatYCee+8Za0vfPO/rTvi4anp6e04w9b8NasXoX+/e+QelbcT1avRUFBgSiCu3sHbNmcCl4ceFyraV/LC1pOTo74OfLdt+HmZgb6yadCcfLkKfU+nNnz1S60532/JfE+jAHgxAsC7wOVPXdt4MfGRCEgYIzYs2olJb2PwsIi2RNGRr4jasaVdYHHSrrus7XSXvkID59lFRIr5Y31bRe8uPIiWT2EA4GPFW8usnbuFMUztnKgcLGaQs27SOWCcH4Bxc8cYlKZhJKWkRvIoRx29iS1zKHJI6EmQ0urucugoXAPHI8MAoQTr3IKfNPz6XDnOhK/QA4tOByr7aDAtutlpLojKIzipA1jbgZ4PIY35s6RcIzzSuJDGmViKmU8yUJIGS5eTFeKxGbf3t1o27atWsagyP6ZSgoKCiX85kpb8LSqpjTm0PCNN9+WSz7IWbtmlaiaUm/7zfsl3jfZpng6Bxg9epQU8yLIi6E2paz/FH369JYibRgqBfTBhyMfr1xu5QPtc3EYy89cF3jcD6suqy8n9sPYgEDJN9WHXfDmM3g0GnlZFuXrF/EmSmiDnkOhSgWpG2hP53L7AHgGB+M8b1zpMMWikQKQhSI6iHEk8OYge8PnKDl5nPZ8ThSGdkSH8RPgTDH5b0sXyb3YXoFvRv616/KFNnxcteoTfLj8o3r7Y+gYPk7asFR5UTyxH33siXr7sK1UJhqHjPc/YJ5wtjb1XXs/cD8iI+epkGhtecKlpX2JqOjYWg9gXF1d5QDDy6uH+JTbchs+gT1M4dWc12dLd+MDH6SDhnxt15gfGwU/v9EqXHzSyye+ShpO24ZXXn4JvXv3sjo1LSoqwvLlK7E+5XPF1Op79ChfxMfHSdmWLdsQE2vOK0ZapefDm9r6GUjwJSYmkE9clWYoLy/Hcgq1h98zDPfdN1LCVT//cWq9NvMyjTt4qvmQrLYxaG0bI28fvLJCpq4GPhqF25Dh8JgyGU4d3QnAdJgOHRLV60z7iXMUwojiMa2skPxnJpfAc0DP1yPopHM/qaERrjTJGbgKkwm5pKDFR38ka1JGiz3DN/P36wOvMZx2s/rk0I5DZp50ubl5OPLDD38I4+oaGyvk4EEDpfrY8eNWR/N1tVHK27VrR2Fla7mn7c8wig0rIO/teC/GIWlTJT4BHUTPxcrJ4XRDUxSFpIEUZXF6eOIUZGVlNbTpDbGzC15sWYHAYw0fnVA6OMHZozvaDx0GN1phXHr3QUl6Os5Ez7OAZwHOjJ7AxCegvee+jTZeXii+eB6FP/6E4l9+RvmVDFRX8EkoQ2cN69MFNSeLN+SJ9U5avAc8PLrJHpXnmu3vjE3lHLvgxVwj8CwhpjV8rGfm396N9PucsweFMgTOtcsXxF7UjiHSKp/RgNY9eok6mmEro3qCjcrNoaUYm/PUO/+HF9b8aNpUTtHvc2t6ICw0BBMmBKJXr57q/jD4H9Nw+vTpJn9gu+BFX/vdrFnCAX+wIvGXFKh1zKAUsWrxHxvJtyZP1ySH5j40dtIjd8d9mxua82QdXlT/D8d8Fz3pHmiIB1Z9vAIDBw4QU97n8g/4n9HPHTcj2Qev9HfmhxESmMyQyKcZEk2dWCkAWezNZea2ll6kH0tnNv2ShQ18z+jg3Yx5cUveM3D8OAwdejfOn7+Abw4exOXLv92057QLXlRJ/h8Aa0r4ni3mE1I96R64tTxgF7zIEpNFlUTabBSq8ZVPB+/WmnD605g90CDw2JQRs93X2Spfzf7MbE9NzKGjtLX0og0llXJtmSV0VdrOKqE9oZ50D9xiHrAL3i32vPrj6B5oFh7QwWsWr0EfREvzgA5eS3vj+vM2Cw/o4DWL16APoqV5QAevpb1x/XmbhQd08JrFa9AH0dI8oIPX0t64/rzNwgM6eM3iNeiDaGke+B+RBdsuHXQXyQAAAABJRU5ErkJggg==;" vertex="1" parent="1">
          <mxGeometry x="292.5" y="125" width="222" height="46" as="geometry" />
        </mxCell>
        <mxCell id="VVkOHHsC4mun2wqV-mM1-2" value="" style="shape=image;verticalLabelPosition=bottom;labelBackgroundColor=default;verticalAlign=top;aspect=fixed;imageAspect=0;image=data:image/png,iVBORw0KGgoAAAANSUhEUgAAAUgAAAAsCAYAAAAHBiHLAAAMaWlDQ1BJQ0MgUHJvZmlsZQAASImVVwdYU8kWnluSkJDQAqFICb0JIr1ICaFFEJAq2AhJIKHEmBBU7MqigmsXUaxYEUVXV0AWFbGXRbH3xYKKsi4WFEXlTQrouq9873zf3Plz5sx/yp3JnQFAu5crkeShOgDkiwukCZGhzDFp6UzSU0AAFGAI/IEulyeTsOLjYwCUgf7v8v4GQBT9VRcF1z/H/6vo8QUyHgDIOIgz+TJePsTNAODreRJpAQBEhd56SoFEgedArC+FAUK8SoGzVXiXAmeqcJPSJimBDfFlADSoXK40GwCte1DPLORlQx6tzxC7ifkiMQDaQyEO4gm5fIgVsQ/Nz5+kwBUQO0B7CcQwHuCb+R1n9t/4Mwf5udzsQazKSykaYSKZJI877f8szf+W/Dz5gA872KhCaVSCIn9Yw1u5k6IVmApxlzgzNk5Ra4h7RXxV3QFAKUJ5VLLKHjXlydiwfoABsRufGxYNsSnEEeK82Bi1PjNLFMGBGK4WdKqogJMEsRHECwWy8ES1zWbppAS1L7QuS8pmqfVnuVKlX4WvB/LcZJaa/41QwFHzY1pFwqRUiCkQ2xSKUmIh1oLYVZabGK22GVEkZMcO2EjlCYr4bSBOEIgjQ1X8WGGWNCJBbV+aLxvIF9ssFHFi1fhAgTApSlUf7CSPq4wf5oJdFohZyQM8AtmYmIFc+IKwcFXu2HOBODlRzdMrKQhNUM3FKZK8eLU9biXIi1TorSD2lBUmqufiKQVwcar48SxJQXySKk68KIc7Ml4VD74MxAA2CANMIIctE0wCOUDU2lXfBX+pRiIAF0hBNhAAF7VmYEaqckQMn4mgCPwJkQDIBueFKkcFoBDqvwxqVU8XkKUcLVTOyAVPIc4H0SAP/pYrZ4kHvaWAJ1Aj+od3Lmw8GG8ebIrxf68f0H7TsKAmRq2RD3hkag9YEsOJYcQoYgTRETfBg/AAPAY+Q2Bzx31xv4E8vtkTnhLaCI8I1wnthNsTRfOkP0Q5CrRD/gh1LTK/rwVuBzm98FA8ELJDZpyBmwAX3BP6YeHB0LMX1LLVcSuqwvyB+28ZfPc21HZkNzJKNiSHkB1+nKnlpOU1yKKo9ff1UcWaOVhv9uDIj/7Z31WfD/voHy2xhdhB7Ax2HDuHNWH1gIkdwxqwi9gRBR5cXU+Uq2vAW4IynlzII/qHv4E3q6ikzK3GrdPts2qsQDC1QLHx2JMk06SibGEBkwW/DgImR8xzHcp0d3N3B0DxrVH9fb1lKL8hCOP8N918HwACi/v7+5u+6aK3A3AwDW7/a9909h/hf7Q1AGc38uTSQpUOVzwU3zBtuNOMgTmwBg4wH3fgDQJACAgHI0EcSAJpYAKMXgjXuRRMATPAXFACysAysBqsA5vAVrAL7AUHQD1oAsfBaXABXAbXwV24ejrAS9AN3oM+BEFICA2hI8aIBWKLOCPuiC8ShIQjMUgCkoZkINmIGJEjM5D5SBmyAlmHbEGqkV+Qw8hx5BzShtxGHiKdyBvkE4qhVFQfNUPt0GGoL8pCo9EkdDyajU5Gi9BidAlagVahe9A69Dh6Ab2OtqMv0R4MYJoYA7PEXDBfjI3FYelYFibFZmGlWDlWhdVijfA9X8XasS7sI07E6TgTd4ErOApPxnn4ZHwWvhhfh+/C6/CT+FX8Id6NfyXQCKYEZ4I/gUMYQ8gmTCGUEMoJOwiHCKfgXuogvCcSiQyiPdEH7sU0Yg5xOnExcQNxH7GZ2EZ8TOwhkUjGJGdSICmOxCUVkEpIa0l7SMdIV0gdpF4NTQ0LDXeNCI10DbHGPI1yjd0aRzWuaDzT6CPrkG3J/uQ4Mp88jbyUvI3cSL5E7iD3UXQp9pRAShIlhzKXUkGppZyi3KO81dTUtNL00xytKdKco1mhuV/zrOZDzY9UPaoTlU0dR5VTl1B3Upupt6lvaTSaHS2Elk4roC2hVdNO0B7QerXoWq5aHC2+1mytSq06rStar7TJ2rbaLO0J2kXa5doHtS9pd+mQdex02DpcnVk6lTqHdW7q9OjSdYfrxunm6y7W3a17Tve5HknPTi9cj69XrLdV74TeYzpGt6az6Tz6fPo2+il6hz5R316fo5+jX6a/V79Vv9tAz8DTIMVgqkGlwRGDdgbGsGNwGHmMpYwDjBuMT4ZmhixDgeEiw1rDK4YfjIYYhRgJjEqN9hldN/pkzDQON841Xm5cb3zfBDdxMhltMsVko8kpk64h+kMChvCGlA45MOSOKWrqZJpgOt10q+lF0x4zc7NIM4nZWrMTZl3mDPMQ8xzzVeZHzTst6BZBFiKLVRbHLF4wDZgsZh6zgnmS2W1pahllKbfcYtlq2Wdlb5VsNc9qn9V9a4q1r3WW9SrrFutuGwubUTYzbGps7tiSbX1thbZrbM/YfrCzt0u1W2BXb/fc3sieY19kX2N/z4HmEOww2aHK4Zoj0dHXMddxg+NlJ9TJy0noVOl0yRl19nYWOW9wbhtKGOo3VDy0auhNF6oLy6XQpcbloSvDNcZ1nmu966thNsPShy0fdmbYVzcvtzy3bW53h+sNHzl83vDG4W/cndx57pXu1zxoHhEesz0aPF57OnsKPDd63vKie43yWuDV4vXF28db6l3r3elj45Phs97npq++b7zvYt+zfgS/UL/Zfk1+H/29/Qv8D/j/FeASkBuwO+D5CPsRghHbRjwOtArkBm4JbA9iBmUEbQ5qD7YM5gZXBT8KsQ7hh+wIecZyZOWw9rBehbqFSkMPhX5g+7NnspvDsLDIsNKw1nC98OTwdeEPIqwisiNqIrojvSKnRzZHEaKio5ZH3eSYcXicak73SJ+RM0eejKZGJ0avi34U4xQjjWkchY4aOWrlqHuxtrHi2Po4EMeJWxl3P94+fnL8b6OJo+NHV45+mjA8YUbCmUR64sTE3Ynvk0KTlibdTXZIlie3pGinjEupTvmQGpa6IrV9zLAxM8dcSDNJE6U1pJPSU9J3pPeMDR+7emzHOK9xJeNujLcfP3X8uQkmE/ImHJmoPZE78WAGISM1Y3fGZ24ct4rbk8nJXJ/ZzWPz1vBe8kP4q/idgkDBCsGzrMCsFVnPswOzV2Z3CoOF5cIuEVu0TvQ6JypnU86H3Ljcnbn9eal5+/I18jPyD4v1xLnik5PMJ02d1CZxlpRI2if7T149uVsaLd0hQ2TjZQ0F+vBQf1HuIP9J/rAwqLCysHdKypSDU3WniqdenOY0bdG0Z0URRdun49N501tmWM6YO+PhTNbMLbOQWZmzWmZbzy6e3TEncs6uuZS5uXN/n+c2b8W8d/NT5zcWmxXPKX78U+RPNSVaJdKSmwsCFmxaiC8ULWxd5LFo7aKvpfzS82VuZeVlnxfzFp//efjPFT/3L8la0rrUe+nGZcRl4mU3lgcv37VCd0XRiscrR62sW8VcVbrq3eqJq8+Ve5ZvWkNZI1/TXhFT0bDWZu2ytZ/XCdddrwyt3LfedP2i9R828Ddc2RiysXaT2aayTZ82izbf2hK5pa7Krqp8K3Fr4dan21K2ndnuu716h8mOsh1fdop3tu9K2HWy2qe6erfp7qU1aI28pnPPuD2X94btbah1qd2yj7GvbD/YL9//4peMX24ciD7QctD3YO2vtr+uP0Q/VFqH1E2r664X1rc3pDW0HR55uKUxoPHQb66/7WyybKo8YnBk6VHK0eKj/ceKjvU0S5q7jmcff9wyseXuiTEnrp0cfbL1VPSps6cjTp84wzpz7Gzg2aZz/ucOn/c9X3/B+0LdRa+Lh373+v1Qq3dr3SWfSw2X/S43to1oO3ol+Mrxq2FXT1/jXLtwPfZ6243kG7dujrvZfot/6/ntvNuv7xTe6bs75x7hXul9nfvlD0wfVP3h+Me+du/2Iw/DHl58lPjo7mPe45dPZE8+dxQ/pT0tf2bxrPq5+/OmzojOyy/Gvuh4KXnZ11Xyp+6f6185vPr1r5C/LnaP6e54LX3d/2bxW+O3O995vmvpie958D7/fd+H0l7j3l0ffT+e+ZT66VnflM+kzxVfHL80fo3+eq8/v79fwpVylUcBDDY0KwuANzsBoMGzAx3e2yhjVXdBpSCq+6sSgf+EVfdFpXgDUAs7xTGe3QzAftjs5iivKkBxhE8KAaiHx2BTiyzLw13FRYU3IUJvf/9bMwBIjQB8kfb3923o7/+yDQZ7G4Dmyao7qEKI8M6wOUSBrhvx54AfRHU//S7HH3ugiMAT/Nj/C7kJj1l3vOiDAAAAimVYSWZNTQAqAAAACAAEARoABQAAAAEAAAA+ARsABQAAAAEAAABGASgAAwAAAAEAAgAAh2kABAAAAAEAAABOAAAAAAAAAJAAAAABAAAAkAAAAAEAA5KGAAcAAAASAAAAeKACAAQAAAABAAABSKADAAQAAAABAAAALAAAAABBU0NJSQAAAFNjcmVlbnNob3Rkw1RiAAAACXBIWXMAABYlAAAWJQFJUiTwAAAB1WlUWHRYTUw6Y29tLmFkb2JlLnhtcAAAAAAAPHg6eG1wbWV0YSB4bWxuczp4PSJhZG9iZTpuczptZXRhLyIgeDp4bXB0az0iWE1QIENvcmUgNi4wLjAiPgogICA8cmRmOlJERiB4bWxuczpyZGY9Imh0dHA6Ly93d3cudzMub3JnLzE5OTkvMDIvMjItcmRmLXN5bnRheC1ucyMiPgogICAgICA8cmRmOkRlc2NyaXB0aW9uIHJkZjphYm91dD0iIgogICAgICAgICAgICB4bWxuczpleGlmPSJodHRwOi8vbnMuYWRvYmUuY29tL2V4aWYvMS4wLyI+CiAgICAgICAgIDxleGlmOlBpeGVsWURpbWVuc2lvbj40NDwvZXhpZjpQaXhlbFlEaW1lbnNpb24+CiAgICAgICAgIDxleGlmOlBpeGVsWERpbWVuc2lvbj4zMjg8L2V4aWY6UGl4ZWxYRGltZW5zaW9uPgogICAgICAgICA8ZXhpZjpVc2VyQ29tbWVudD5TY3JlZW5zaG90PC9leGlmOlVzZXJDb21tZW50PgogICAgICA8L3JkZjpEZXNjcmlwdGlvbj4KICAgPC9yZGY6UkRGPgo8L3g6eG1wbWV0YT4KSqdiYwAAABxpRE9UAAAAAgAAAAAAAAAWAAAAKAAAABYAAAAWAAAN2x+9tagAAA2nSURBVHgB7JsLXI/XH8c/mVvZdMGfMKu/mNj295+J7pHLUirJJRqzDBt/DNsiJZeSLmO5NKIwUi655joj122GXWxj7C+XYTMh1Wwu7XzPr/Ps+V3rV7+8NM8Xz+859/N8n3Pe53u+52HW0cmlBIooGlA0oGhA0YCWBswUQGrpRIlQNKBoQNEA14ACSGUgKBpQNKBoQI8GFEDqUYwSrWhA0YCiAaMBubxbMczMwP7Rhf/lYX5fVjzTNxUjUauDl6NI+sv+UJ7SOM12fD+uScUVUTSgaEDRQJVrwHhAehfrhZc+qKnFs0eqDCT9VimArPJRoTSgaEDRANeA0YBM76qyINWgxy2/UvDpsfzU8rOmKwrJ3goglaGraEDRwCPSgPGA7PK3BakGvUcEyd6rFQvyEY0NpRlFA0+8BowGZBoDJGOhtM3WhGSTwHBYvdxfr2ILz+zE9Q0RzILktRhtSfpn1NJbt5KgaEDRgKIBU2rAaEAu8yo9pKFelG6nxS9Br+mg2ajv2NNgHy+n9cG9axcrBMmANQogDSq3nIk2NjZ4+PABbt26Xc4SSjZFA0+eBowHpGcRdyCSAajLkmw2OK5MQBae3oFfN0zl1qOxlmRApmkA6ezcGTVrPlXmG7906TLy8i6Uma86ZfD19cG0qKkoKSlB+OQI7NuXW526X+V9bdrUFi1b/hu//34XX355vMrbM3UD+/d/AvO6dbFx02bExSWYtPqIKeHw9/djuvkdXl26m7Tux7EyowG51KNItS1mhNQFyeahZQOSFHExxQf38381GpKBWaYB5BefHy7X+/j221MIGz6yXHkfl0x12eTo8PJ/eXeOnziJu3fvqnVtfvJcdOrkxOP2froPkydPVUt/0gOJiXPg4e7GLOyH6OzsXu3UceRwLlv8a2LXrt2IjJpu0v7HzJqB7t29ce/ePbi6eZm07sexMqMBmequAiTBkeimCclmDJCWbQ1vsUkRBd+sw29b4qRtenktyT5ZtU2ix/IC8quvvsaIkW+bpM1HVYmnhzsSEphumbz7bjhyDxxUa/rFF1/AvLlJzIJ8iLdHj8WPP55VS3/SAwog9Y8ABZD6dcNTUt1oi83ZyOGoCcnmobGwbOdTRi0smfm/LizogQcFt2T1EXVVdYtfDk5Ze33WmhaQtA2ZPTuet/tPuZQFyH/Kc1bVcyiA1K9ZBZD6dcNTljBAcozJoCWHZE3L+qht00RVi1kJrDoEwbrDQJ213jq2Ajd2JpeCVkDXMCSD1v1zAEl+LvJx/vnnnzr1oxlJ26bnnmuBX375FYWFhZrJUtiUgLS1tUVBQQGKitjCaKSQL6+4uLjcB0HkGrC1bYILFy7y7a2RzZksuykAWaNGDdjb27H3e4m933tG9Y30dudOIft3R6uchbk5GjdpjPPn87TSRISuLXbt2rVhZ/cc96eXd7zpKlNeQIp3aaifor+P86/RW+zFrqVbbHoqPZAU8fRbq359OEzaA7OntMFWcv8P5CV3x0M2+VRb9rIh2Xe9dj0VUbDYYhtjQS5ZvAgvvfQih1q//iFazYYMHIBx48bwww9nFw8pfcb0aejRoxsDzR2EhY1AMvMBEghoEpEUM4d3QkIScnJ2SGXkN+TzmfDOODRo0ECKJr/iuXM/Ydz4idJEeuWVDlgwfx7TJbk+VAsNHcTQvwcPHkg+Iyenjkj+8ANeV8ig17QmG7U3KGQgWrVyAE0Sktu3b+O7735AQmISfv75Co8TF2/vroiZNZ0HA/sEY8aMaLR1dGRlVf7i+/fvY/PmrZgTnyiKqP1GRUagq3cX0OQnof7SAvDB3A/16kStAhMHKgPIkSOGIyRkACwsLKRe0fv97LPPER4eIcWJm6NHDvB3lZy8AK2fb41uTJdC5wTJqKhoHD5yFHSwNmniO6hXrx4vSv5RWlyHvzmKvxtRH/3KAbk/9yDC358ES0tLKUt+fj7fNeVquF5EBk9PD0yZ/B6sra1FFF/k4uLiQe9anw+S+j0nLgYdO74iPQO9S1pgV65chY9XZUj1VZcb4wHpItti01OWA5JNAibCxilUp07yDy1E/r40qoYNFHl9FCiNK/2lSd93g2rC8sRKXCoCyIzVK+Dg4IDffruBXr7+Wq0PDxuGEWyCkDh1cpXSP0iKh5ubKwgUtHrLJ4+Uid1ERkZj1+498ijQYI2fEysBTy2RBeik9c0Ro7gf0dXFGXPn6oYQlRN9kluYQ4a+gdOnz0jVdu3ixU4+Y6Sw5g1ZhAGBwWqT0s+vFwhyJJcuX8azzZtrFuNhXQdC69dlokWLZ6X8NKEE3Cly7boNSExUwVzKVMU3FQXk8vSlaNvWUW/vyJoaMHCwWroYh1evXmWLpq1aGgVIH2lpy9nCOkwrjSLoMy0aizS2hAhAGnoXBNihr4fhzJkfRTH+26bN86DnEIu3WiILiDo1D2locdu+Y6u0yGmWo/D69dmIZ4ZAdRKjAfmRs4a1R0/LWEZwUwGu9OCmhhlsXIJw82g2alnboNWEXUAN7c9qHv5RhPPzuqGEgYOQWBYkg7PrmES/YmAaY0FWFpCi42RNZazJZJApwIg3wxAUFMiTyErr3qOXyAZHxzZIT0vlg5UGdGbWOmRnb+SfoAT1CZROoi9evITgfgN5PisrK7i5umDq1Mm8nlmzZuPQ4SPcgqT6SfQBkg5vUpek8Hpowq3JXItNGzejabOmCA4O4uWo/I0bN9DbP0ialHJAUvqp777HRx8twSn2BYBPr1cxccJ4fqpKk/1VHz/cvMn8zkzkQD/BTtsnTnqffz7i3LkTYmJn8slGlq+nl7fR21TeQAUvFQFkhw4vI2XRfN7i9evXkZQ0DydOnkT3bt0wZEgoGjf+F08b87/x+OKLY1LPxDikiCtXrmJWzGxcZovM6LdHoWfPHlI+0l1q6jJks/dBCwpZasLCo13E0aOfSXkFIEXE1m05WMcWmjp16qB/v2BuAVIaLa6+fgGSu+aZZ57Btq2bYG5elxfds2cvW6DW80W9X3Bf0HsWognI8PB3QWOS5NixL5G6NA3Xrl1DYIA/QkMHcYuyOn4VYDQgUzoX8hVeDWSkFQ1IWrb3RIuQebiwchSKTn+Opv0jYdU+iHJqyfW98bh9OEtVB0tVq5sHSuNYWr+NpgUkDebvfzit1SeKIKAQYISYApC6VtFlSxeD4EQirDy6pwlHE4+EPtegzzbkQlv+9u3/w6P69h3AV3cKyAGo6xRbni63IFNSFkifB70fPkXr+8ikxHi4u7vy9iKmRoEmEIkckOQ/1HQ/DHt9CN56a6RWObKMvbw8ebyLq6cEXIp4oV1bXoYsmRkzY0EW1qOSigDSx6cn/Hv78WeYEhEluT2oz61bt8Kqj5fz7m/Zso1DkAfYRQCSLPMePX05jETahg1ZkjU+f/5CtS1qE+aH3LI5m2fVHFNyQNLWdsHCFFEl/50eHQXqL0kKW8jS01fwe/kOaPuOnYiOnsnjxWXs2NEIHTyIBzUBSWmObdrgCntPM9n7ksuY0W/xRYLi6KuJ6vRtqfGA7MQOBzgMVZaiBEZ6egFJZj22mpCFuo1bo/jKKZxf8BrqNLKFwzvbKZeWPCjOZ1YkO/mmbQLVwXLog6SpAanVGVkEWS9yX6IpANnzVV/JghJNkYVBg4iELEGyCEl279oOKytL7ljvP0A1MHlC6YX8UV5eKl9nLvM1iYMbOQCNAaRo76ef/g/yTWoKwUr4zMgqERNBDsjk5IVYtTpDrai1tRV27czhcTQZaVKSjB8/lvk6B/B7mpCxsXGVshSffvppXpeuC1lg5T1oqgggdbUpj9u/bw93rXz99TfMJaJ615QuAHng4CFMYha0XGbOmCZZkR6e3lrfswoQHjp0GBMmvicVFfEEXX0fc4s85BsdO24CLzuf+a87Mf807R5owdIl4jk0Aakrr4gjy3TvJzt5kGBN0K4uYjQgFzmRBckej8NQNyTrt3OC/TDVJCBF5KW9gaKzJ2HoE6Bftkej4NgWbp0agmT/TXVMolsxMOmw4+bNmzrrpEOV14YMk9IqC0h9g4qc3nQ6SDJo8FB2+HKOb3MFjHbv+YRtmadJ/SjrpiKAlMPP0AfGNNBpwMv9aXJAElgJsJoi9E3wJIiS0Klq5ppV/FkpLA4ejh8/wV0QYqGgtLKEDqgWLUw2mE1unRvKWBlA2tvbcauYPtS3aWDD3AQWfMsqtsP6AElbUtpCyyUycgp6+/ly94h8oRZ5DuTuBZ0W6wPk2bPnMDh0qMiu9puzbRMaNWoE2kH5+qm2xjk5m9GoYUP+lURv/z5q+UUgI2MlHFq21PmhOI0h2tF4sO9w2zFfbH12QGvOfJMWFub8nup4IgBJD6oXkgycDmPTUa+F6n9yUN6iiyeQlxKGus3s0HLMRorSknu3ryDvwwDmlX5gEJKmBuSj9EESjMkS0BT5wYgApL29HbIyV/Os8m2QZlld4YoA0t5e1l7KYqQvX6mraqzNWs3AZsetsS5dVT4yOSDpAEfXdlgXIKkBmlCxMTPRsOHfJ/SiYZq85LMjGJcldDJPJ/iGpCoBSXCg/6FEJ7iGRC8gGRwJknKpLCA/3bdf58k5tZHGfNvkxqBPkNzcvXizhw7uZ77CWjD0v8cS4mfzg0PNxZ5gu2L5Mp3vkVdeeqlugPwLAAD//9fDHzYAAAtpSURBVO1aB1hVRxb+IUrUBEskoijIy6qoa0UsUewbNUrERlEMGrN2Y4ldY42KCggiqBELYoz62RuISgLYNTEaxbaoWEGDoGILFjJn3pvrfQ9IfCzwWHfme9x7Zs6cKf+d+99zZjBr2KhpJoxIIQ0fwcxMa8DvTDZjgpDfr1obVQevydLildDeeHo5HnZfLoRl1RZZ9FSQtHUs0k9H87aoTWh/SttU5LG9WLa2xhYeP3aIm2zdth0+PvPfyPyHtatRpUoVpKTcQ8dOnbPYDBrYH/369eXljRo3U/QL/OfD2bkZnj17hhYt2yrlQmjTuhXmzp3Ns728+iAhIQHm5uY4cjiOYxsVtRdTps4Q1f/23rJFc/j6zuX1xo6dgNi4A3o2ar13n364cOGiXn+7d0dixsxZejYis29vBEqVKoVr167Dzb0nL3Zx6YipUyZz2bVLDyQlJYnqyl3g/f3aHxAUFKKUC0GjsYdbj+5wcnJE5cqV+bxJ9/z5c3RyccX9+w8om2MqUqQIatSonqP+1atXiI8/l6NerfDzm4cWzZ1BNk0+bq5W5SgHLPBFs2ZNuZ6eM/V18tdTSE1N5X8+c2ZxjE+f/g39BwxW2hG4hIauQOjylUo5CVOmTMJnLp3w8uVLfNw06zsTFxuNYsWK4eDBQ/h69DjF9vChWBAeFy5ehLd3P6VcLezYvgXly1vrreXIiB0oW7YskpKT4eraXV1dkdeEr4KDQzX+XJo5t1LK90ZFoHTpUjz/4MED/PzLSVy69B/cu3cPDx48hO98H64LDlmC8PDvFbvCLpgZS5DBTlqC5ITIZsfvRGRMIPkfQ0JQsuprchAAPLpyFInLBqOEpjo+GrhOFOvd/7h3FdeCewCZmbyt7EjSc4fpCDI8fCWqOzjgyZMnaNX6E72xU8Znzrdo27YNL/9vCZIaEYsuMTER7h5evF31hUi0UqWK/MVLTLymqNQE+KYEScb790WiZMmSfGH3/ryv0p5aOHrkAO8vMjIK06bP5Kq8IEh1H/Si+c6fi7p16/DigIAgrFu/QV0lX+XcEGRMzH6UKF4cjx8/Rus27fTGR8+JSIvuBUmQ6enpaPuvDnpjEZlDB2NQtGhRnDjxM4YOG8GLlyxehAYNHLOQn7Che/T+KFhavq9Xp1y5cti1cyuv9gsjxsFDvlKbwNGxPpYuCeZl/xcESTMlMuTkqJPJ23vPvhqqj9rIgTC8ZL5gX9VpzsCrl9AMCsV7lZ0Mq/D8zQ1D8eTcEda46IME/uP9ee40HUGSl0RkkMkIvMOnLkhLu6/MgRb/j9FRKFGiBC/LC4JcwhZVA7a4KI0dNxGxsXFcFhcfn1lo26Y1z3p4euHq1UQuN2/eDP5+Wq84bPUaLF68VJjwu5pAhQdJitBlSzgp0fyGDB0OWuzqJOZPZdOnf4uIyD1cnVuCnDhxHMpbW+Ms87bIg1In20qVsHmzlhQ3bNgI/wWBanW+yrkhyGNHD7L1aZat19a5swu+mTyRj7kgCZI6JG+dvHZ1GjlyOHr19OBF5LUK7NUR0Nq167AwSEtqwtbbuzeGDdV6v+TZCw+yZcsWioe4cmUYln4XKkz4PTDAH02bNuHyW0+Qixroh9hqkvyovx/K1M7qWREyKYdWI2l7AGc9SwdH2PfTfyE4euzyLDked3bN4GSY8ftNZP7xjC88QZI9d5mOIDt+2oERwxQ+1OvXb7BQaRAnyYoVbbDA3xcajT3X0SUvCLJevbr4bmkIn/+LFy8Qwohu27YdPJTp6ekBd3fmbbN0+3YSunTVypSn8Wzdov1QpaWlYeq0mdxToJCRUk4E2aRJYywM9Of9ZWQ8Zy/XIuyO2IMPypSBl1dPdOvWhdunpz/iYS+FkpRyS5Bhq5ajZs0avA0Ku5avWMW3ISwtLdm8g/l2Bim7dnPDrVu3eb2CuAiCpA/FyFFjcuyS9MePn+Ch+O7d2/GhlRWvO8dnHiIiImFh8S48PdzQv/+X2jXMtAVNkDRGwnXz5q087Pb0dENvr158nPSMO7t241sAVGBlVRbbt23mniXliVjXr98IWntuPbrx7SMe1TGdmiAtLIriQNxPfI5Pnj7F+PGTcOzYcVSoUAGjR4/k2xXUHqW3niCDHLOG2ESSxWzsUGviTi0KBtfMVy9w3qcdXtxPZSAypbkZqoxYi+IVahrU1M+mxAQiNSac24hwu5cJCZIWAi0g2qcRiRagWDS0OCjMopQXBEntqEmZ8oaJFu+wr0bi5Mlf9VSxMdEoXvz1x4TG2bgJ8+BZyokgSUckOGH8WBKzTfRS9XDzQHLyHUWfW4JUfwBEYxkZGYxYLEQ2C6EoinwUBEG+SRe0F0170l980QeDBw1QTNTrgj5M9Ef7ggVJkHfu3IW1dTllTGqBxpddlODk1AAhwQuVNa22IVm0qSZIKl/Goo96ui0Ryqvn//DhQ751Q+VvP0HWf6QNeSnsJbJjie6avjNh5eSqLTC4ppzYhFvr2aa/zobqW9Zxhn3vYIOa+tmUmCCk/hSmsjNDr92vX3r92sblxOb4li3bMHee7xsb0wHF6rAV7OtYXm8RHTlyFGfOnMWAAf/mbakJUrxwOR3SqEMUdagsBuXu1h1DhgxSwncqpwWYlJTM9o+GZ+tdEflMYiGsvb29aEYhbTpMoEMFSrTXeIltpquTB/N6PD3c+Rxp64ASEVdCwmWOFR3qqJOaxF0+64q7d++q1VwWISh5ivSSiKTR2COQea0UaosPDekIq3XrNmDJ0mWULdBEBwr0TN4kte/QSdlqIa9+2LDBigdG9nRgMfmbaZgzeyYniVOnTmPAwCFK02IdUlhK4ak6UVhO4fnfHdLEHTiIMWPGK6Zif5H2iePj4zF8+DC9j87Tp88QELiQRyOKkUro0qUzvh41gh8AiWJ6/gGBQZwE27dvp+dBijqEW3N2uCXWDJUnXL7MvMjxzLHYxKtlF/IL+8J4N/qQZmH9dMZzxHRaYiSys7Aqh3rTo1iB9mXSmyh7kc/N74iMu0lk8truHXNUG7MZ71pp9KqrM78TQf4YxglY9OcVofXQ1PVMIdMiqF27Fn+pz507zwkkv8dhY1MBdnZ27IVMw8WLl96oOzrlpIMXOlh69Ih93IxIYo7UH20p5Hei01H6AJ1lHxryxv9XE50OazQatid8Vc/TNuV87OxsYWtryz6mt6A+0PurMWk09rCxscGNGzeMev70HGmbhD6kxq65vxqPKXRGE2RgPUaQRI6csdidyfa9xsPaWbuvYTiJtN+ikLiKfd3IhtuxGjq5TMNPYOues/dGBHmPCJJM+IV5PJGFgyAN5ynzEgGJwNuHgPEEWTddITgiyaKly8Bx1l6YFXm9b6SG6bxfNzy9eUUhODVJmhd5Bw4TdsKitI3aRJE5QUaHaftjpWTbe48kSAUgKUgEJAL5ioDRBBlQR+tBCi/ww6adUMVb+0+ghiNNPbMPV0PH6AiV0anOC1ST5AeNOjAvcq6hKc8nR8xG2uFNzI4Zan/4PEoSZLZgyUKJgEQgzxEwmiAX1NaF2HpkpyMwulE5S5zTVLKWULMnSaUuE7jMG9C1pWtTkKS3JEiOr7xIBCQC+Y+A8QRZSxViEwEKAtO5eArZkUqno2mQnBck6b1XepCEp0wSAYlA/iNgNEH6M4IkrlOIUSE+KiJGZD/dH69mIGv1ufck++wrkf+oyB4kAhIBiQBDwGiC9PunOMUmaxUZCjmfSbLvfkmQcuVKBCQCBYOA0QRZMMOSvUgEJAISAdMjIAnS9M9AjkAiIBEopAhIgiykD0YOSyIgETA9ApIgTf8M5AgkAhKBQoqAJMhC+mDksCQCEgHTIyAJ0vTPQI5AIiARKKQISIIspA9GDksiIBEwPQKSIE3/DOQIJAISgUKKwJ+R8BUCerV1NgAAAABJRU5ErkJggg==;" vertex="1" parent="1">
          <mxGeometry x="40" y="240" width="328" height="44" as="geometry" />
        </mxCell>
        <mxCell id="VVkOHHsC4mun2wqV-mM1-3" value="" style="shape=image;verticalLabelPosition=bottom;labelBackgroundColor=default;verticalAlign=top;aspect=fixed;imageAspect=0;image=data:image/png,iVBORw0KGgoAAAANSUhEUgAAAUgAAAAsCAYAAAAHBiHLAAAMaWlDQ1BJQ0MgUHJvZmlsZQAASImVVwdYU8kWnluSkJDQAqFICb0JIr1ICaFFEJAq2AhJIKHEmBBU7MqigmsXUaxYEUVXV0AWFbGXRbH3xYKKsi4WFEXlTQrouq9873zf3Plz5sx/yp3JnQFAu5crkeShOgDkiwukCZGhzDFp6UzSU0AAFGAI/IEulyeTsOLjYwCUgf7v8v4GQBT9VRcF1z/H/6vo8QUyHgDIOIgz+TJePsTNAODreRJpAQBEhd56SoFEgedArC+FAUK8SoGzVXiXAmeqcJPSJimBDfFlADSoXK40GwCte1DPLORlQx6tzxC7ifkiMQDaQyEO4gm5fIgVsQ/Nz5+kwBUQO0B7CcQwHuCb+R1n9t/4Mwf5udzsQazKSykaYSKZJI877f8szf+W/Dz5gA872KhCaVSCIn9Yw1u5k6IVmApxlzgzNk5Ra4h7RXxV3QFAKUJ5VLLKHjXlydiwfoABsRufGxYNsSnEEeK82Bi1PjNLFMGBGK4WdKqogJMEsRHECwWy8ES1zWbppAS1L7QuS8pmqfVnuVKlX4WvB/LcZJaa/41QwFHzY1pFwqRUiCkQ2xSKUmIh1oLYVZabGK22GVEkZMcO2EjlCYr4bSBOEIgjQ1X8WGGWNCJBbV+aLxvIF9ssFHFi1fhAgTApSlUf7CSPq4wf5oJdFohZyQM8AtmYmIFc+IKwcFXu2HOBODlRzdMrKQhNUM3FKZK8eLU9biXIi1TorSD2lBUmqufiKQVwcar48SxJQXySKk68KIc7Ml4VD74MxAA2CANMIIctE0wCOUDU2lXfBX+pRiIAF0hBNhAAF7VmYEaqckQMn4mgCPwJkQDIBueFKkcFoBDqvwxqVU8XkKUcLVTOyAVPIc4H0SAP/pYrZ4kHvaWAJ1Aj+od3Lmw8GG8ebIrxf68f0H7TsKAmRq2RD3hkag9YEsOJYcQoYgTRETfBg/AAPAY+Q2Bzx31xv4E8vtkTnhLaCI8I1wnthNsTRfOkP0Q5CrRD/gh1LTK/rwVuBzm98FA8ELJDZpyBmwAX3BP6YeHB0LMX1LLVcSuqwvyB+28ZfPc21HZkNzJKNiSHkB1+nKnlpOU1yKKo9ff1UcWaOVhv9uDIj/7Z31WfD/voHy2xhdhB7Ax2HDuHNWH1gIkdwxqwi9gRBR5cXU+Uq2vAW4IynlzII/qHv4E3q6ikzK3GrdPts2qsQDC1QLHx2JMk06SibGEBkwW/DgImR8xzHcp0d3N3B0DxrVH9fb1lKL8hCOP8N918HwACi/v7+5u+6aK3A3AwDW7/a9909h/hf7Q1AGc38uTSQpUOVzwU3zBtuNOMgTmwBg4wH3fgDQJACAgHI0EcSAJpYAKMXgjXuRRMATPAXFACysAysBqsA5vAVrAL7AUHQD1oAsfBaXABXAbXwV24ejrAS9AN3oM+BEFICA2hI8aIBWKLOCPuiC8ShIQjMUgCkoZkINmIGJEjM5D5SBmyAlmHbEGqkV+Qw8hx5BzShtxGHiKdyBvkE4qhVFQfNUPt0GGoL8pCo9EkdDyajU5Gi9BidAlagVahe9A69Dh6Ab2OtqMv0R4MYJoYA7PEXDBfjI3FYelYFibFZmGlWDlWhdVijfA9X8XasS7sI07E6TgTd4ErOApPxnn4ZHwWvhhfh+/C6/CT+FX8Id6NfyXQCKYEZ4I/gUMYQ8gmTCGUEMoJOwiHCKfgXuogvCcSiQyiPdEH7sU0Yg5xOnExcQNxH7GZ2EZ8TOwhkUjGJGdSICmOxCUVkEpIa0l7SMdIV0gdpF4NTQ0LDXeNCI10DbHGPI1yjd0aRzWuaDzT6CPrkG3J/uQ4Mp88jbyUvI3cSL5E7iD3UXQp9pRAShIlhzKXUkGppZyi3KO81dTUtNL00xytKdKco1mhuV/zrOZDzY9UPaoTlU0dR5VTl1B3Upupt6lvaTSaHS2Elk4roC2hVdNO0B7QerXoWq5aHC2+1mytSq06rStar7TJ2rbaLO0J2kXa5doHtS9pd+mQdex02DpcnVk6lTqHdW7q9OjSdYfrxunm6y7W3a17Tve5HknPTi9cj69XrLdV74TeYzpGt6az6Tz6fPo2+il6hz5R316fo5+jX6a/V79Vv9tAz8DTIMVgqkGlwRGDdgbGsGNwGHmMpYwDjBuMT4ZmhixDgeEiw1rDK4YfjIYYhRgJjEqN9hldN/pkzDQON841Xm5cb3zfBDdxMhltMsVko8kpk64h+kMChvCGlA45MOSOKWrqZJpgOt10q+lF0x4zc7NIM4nZWrMTZl3mDPMQ8xzzVeZHzTst6BZBFiKLVRbHLF4wDZgsZh6zgnmS2W1pahllKbfcYtlq2Wdlb5VsNc9qn9V9a4q1r3WW9SrrFutuGwubUTYzbGps7tiSbX1thbZrbM/YfrCzt0u1W2BXb/fc3sieY19kX2N/z4HmEOww2aHK4Zoj0dHXMddxg+NlJ9TJy0noVOl0yRl19nYWOW9wbhtKGOo3VDy0auhNF6oLy6XQpcbloSvDNcZ1nmu966thNsPShy0fdmbYVzcvtzy3bW53h+sNHzl83vDG4W/cndx57pXu1zxoHhEesz0aPF57OnsKPDd63vKie43yWuDV4vXF28db6l3r3elj45Phs97npq++b7zvYt+zfgS/UL/Zfk1+H/29/Qv8D/j/FeASkBuwO+D5CPsRghHbRjwOtArkBm4JbA9iBmUEbQ5qD7YM5gZXBT8KsQ7hh+wIecZyZOWw9rBehbqFSkMPhX5g+7NnspvDsLDIsNKw1nC98OTwdeEPIqwisiNqIrojvSKnRzZHEaKio5ZH3eSYcXicak73SJ+RM0eejKZGJ0avi34U4xQjjWkchY4aOWrlqHuxtrHi2Po4EMeJWxl3P94+fnL8b6OJo+NHV45+mjA8YUbCmUR64sTE3Ynvk0KTlibdTXZIlie3pGinjEupTvmQGpa6IrV9zLAxM8dcSDNJE6U1pJPSU9J3pPeMDR+7emzHOK9xJeNujLcfP3X8uQkmE/ImHJmoPZE78WAGISM1Y3fGZ24ct4rbk8nJXJ/ZzWPz1vBe8kP4q/idgkDBCsGzrMCsFVnPswOzV2Z3CoOF5cIuEVu0TvQ6JypnU86H3Ljcnbn9eal5+/I18jPyD4v1xLnik5PMJ02d1CZxlpRI2if7T149uVsaLd0hQ2TjZQ0F+vBQf1HuIP9J/rAwqLCysHdKypSDU3WniqdenOY0bdG0Z0URRdun49N501tmWM6YO+PhTNbMLbOQWZmzWmZbzy6e3TEncs6uuZS5uXN/n+c2b8W8d/NT5zcWmxXPKX78U+RPNSVaJdKSmwsCFmxaiC8ULWxd5LFo7aKvpfzS82VuZeVlnxfzFp//efjPFT/3L8la0rrUe+nGZcRl4mU3lgcv37VCd0XRiscrR62sW8VcVbrq3eqJq8+Ve5ZvWkNZI1/TXhFT0bDWZu2ytZ/XCdddrwyt3LfedP2i9R828Ddc2RiysXaT2aayTZ82izbf2hK5pa7Krqp8K3Fr4dan21K2ndnuu716h8mOsh1fdop3tu9K2HWy2qe6erfp7qU1aI28pnPPuD2X94btbah1qd2yj7GvbD/YL9//4peMX24ciD7QctD3YO2vtr+uP0Q/VFqH1E2r664X1rc3pDW0HR55uKUxoPHQb66/7WyybKo8YnBk6VHK0eKj/ceKjvU0S5q7jmcff9wyseXuiTEnrp0cfbL1VPSps6cjTp84wzpz7Gzg2aZz/ucOn/c9X3/B+0LdRa+Lh373+v1Qq3dr3SWfSw2X/S43to1oO3ol+Mrxq2FXT1/jXLtwPfZ6243kG7dujrvZfot/6/ntvNuv7xTe6bs75x7hXul9nfvlD0wfVP3h+Me+du/2Iw/DHl58lPjo7mPe45dPZE8+dxQ/pT0tf2bxrPq5+/OmzojOyy/Gvuh4KXnZ11Xyp+6f6185vPr1r5C/LnaP6e54LX3d/2bxW+O3O995vmvpie958D7/fd+H0l7j3l0ffT+e+ZT66VnflM+kzxVfHL80fo3+eq8/v79fwpVylUcBDDY0KwuANzsBoMGzAx3e2yhjVXdBpSCq+6sSgf+EVfdFpXgDUAs7xTGe3QzAftjs5iivKkBxhE8KAaiHx2BTiyzLw13FRYU3IUJvf/9bMwBIjQB8kfb3923o7/+yDQZ7G4Dmyao7qEKI8M6wOUSBrhvx54AfRHU//S7HH3ugiMAT/Nj/C7kJj1l3vOiDAAAAimVYSWZNTQAqAAAACAAEARoABQAAAAEAAAA+ARsABQAAAAEAAABGASgAAwAAAAEAAgAAh2kABAAAAAEAAABOAAAAAAAAAJAAAAABAAAAkAAAAAEAA5KGAAcAAAASAAAAeKACAAQAAAABAAABSKADAAQAAAABAAAALAAAAABBU0NJSQAAAFNjcmVlbnNob3Rkw1RiAAAACXBIWXMAABYlAAAWJQFJUiTwAAAB1WlUWHRYTUw6Y29tLmFkb2JlLnhtcAAAAAAAPHg6eG1wbWV0YSB4bWxuczp4PSJhZG9iZTpuczptZXRhLyIgeDp4bXB0az0iWE1QIENvcmUgNi4wLjAiPgogICA8cmRmOlJERiB4bWxuczpyZGY9Imh0dHA6Ly93d3cudzMub3JnLzE5OTkvMDIvMjItcmRmLXN5bnRheC1ucyMiPgogICAgICA8cmRmOkRlc2NyaXB0aW9uIHJkZjphYm91dD0iIgogICAgICAgICAgICB4bWxuczpleGlmPSJodHRwOi8vbnMuYWRvYmUuY29tL2V4aWYvMS4wLyI+CiAgICAgICAgIDxleGlmOlBpeGVsWURpbWVuc2lvbj40NDwvZXhpZjpQaXhlbFlEaW1lbnNpb24+CiAgICAgICAgIDxleGlmOlBpeGVsWERpbWVuc2lvbj4zMjg8L2V4aWY6UGl4ZWxYRGltZW5zaW9uPgogICAgICAgICA8ZXhpZjpVc2VyQ29tbWVudD5TY3JlZW5zaG90PC9leGlmOlVzZXJDb21tZW50PgogICAgICA8L3JkZjpEZXNjcmlwdGlvbj4KICAgPC9yZGY6UkRGPgo8L3g6eG1wbWV0YT4KSqdiYwAAABxpRE9UAAAAAgAAAAAAAAAWAAAAKAAAABYAAAAWAAAN2x+9tagAAA2nSURBVHgB7JsLXI/XH8c/mVvZdMGfMKu/mNj295+J7pHLUirJJRqzDBt/DNsiJZeSLmO5NKIwUi655joj122GXWxj7C+XYTMh1Wwu7XzPr/Ps+V3rV7+8NM8Xz+859/N8n3Pe53u+52HW0cmlBIooGlA0oGhA0YCWBswUQGrpRIlQNKBoQNEA14ACSGUgKBpQNKBoQI8GFEDqUYwSrWhA0YCiAaMBubxbMczMwP7Rhf/lYX5fVjzTNxUjUauDl6NI+sv+UJ7SOM12fD+uScUVUTSgaEDRQJVrwHhAehfrhZc+qKnFs0eqDCT9VimArPJRoTSgaEDRANeA0YBM76qyINWgxy2/UvDpsfzU8rOmKwrJ3goglaGraEDRwCPSgPGA7PK3BakGvUcEyd6rFQvyEY0NpRlFA0+8BowGZBoDJGOhtM3WhGSTwHBYvdxfr2ILz+zE9Q0RzILktRhtSfpn1NJbt5KgaEDRgKIBU2rAaEAu8yo9pKFelG6nxS9Br+mg2ajv2NNgHy+n9cG9axcrBMmANQogDSq3nIk2NjZ4+PABbt26Xc4SSjZFA0+eBowHpGcRdyCSAajLkmw2OK5MQBae3oFfN0zl1qOxlmRApmkA6ezcGTVrPlXmG7906TLy8i6Uma86ZfD19cG0qKkoKSlB+OQI7NuXW526X+V9bdrUFi1b/hu//34XX355vMrbM3UD+/d/AvO6dbFx02bExSWYtPqIKeHw9/djuvkdXl26m7Tux7EyowG51KNItS1mhNQFyeahZQOSFHExxQf38381GpKBWaYB5BefHy7X+/j221MIGz6yXHkfl0x12eTo8PJ/eXeOnziJu3fvqnVtfvJcdOrkxOP2froPkydPVUt/0gOJiXPg4e7GLOyH6OzsXu3UceRwLlv8a2LXrt2IjJpu0v7HzJqB7t29ce/ePbi6eZm07sexMqMBmequAiTBkeimCclmDJCWbQ1vsUkRBd+sw29b4qRtenktyT5ZtU2ix/IC8quvvsaIkW+bpM1HVYmnhzsSEphumbz7bjhyDxxUa/rFF1/AvLlJzIJ8iLdHj8WPP55VS3/SAwog9Y8ABZD6dcNTUt1oi83ZyOGoCcnmobGwbOdTRi0smfm/LizogQcFt2T1EXVVdYtfDk5Ze33WmhaQtA2ZPTuet/tPuZQFyH/Kc1bVcyiA1K9ZBZD6dcNTljBAcozJoCWHZE3L+qht00RVi1kJrDoEwbrDQJ213jq2Ajd2JpeCVkDXMCSD1v1zAEl+LvJx/vnnnzr1oxlJ26bnnmuBX375FYWFhZrJUtiUgLS1tUVBQQGKitjCaKSQL6+4uLjcB0HkGrC1bYILFy7y7a2RzZksuykAWaNGDdjb27H3e4m933tG9Y30dudOIft3R6uchbk5GjdpjPPn87TSRISuLXbt2rVhZ/cc96eXd7zpKlNeQIp3aaifor+P86/RW+zFrqVbbHoqPZAU8fRbq359OEzaA7OntMFWcv8P5CV3x0M2+VRb9rIh2Xe9dj0VUbDYYhtjQS5ZvAgvvfQih1q//iFazYYMHIBx48bwww9nFw8pfcb0aejRoxsDzR2EhY1AMvMBEghoEpEUM4d3QkIScnJ2SGXkN+TzmfDOODRo0ECKJr/iuXM/Ydz4idJEeuWVDlgwfx7TJbk+VAsNHcTQvwcPHkg+Iyenjkj+8ANeV8ig17QmG7U3KGQgWrVyAE0Sktu3b+O7735AQmISfv75Co8TF2/vroiZNZ0HA/sEY8aMaLR1dGRlVf7i+/fvY/PmrZgTnyiKqP1GRUagq3cX0OQnof7SAvDB3A/16kStAhMHKgPIkSOGIyRkACwsLKRe0fv97LPPER4eIcWJm6NHDvB3lZy8AK2fb41uTJdC5wTJqKhoHD5yFHSwNmniO6hXrx4vSv5RWlyHvzmKvxtRH/3KAbk/9yDC358ES0tLKUt+fj7fNeVquF5EBk9PD0yZ/B6sra1FFF/k4uLiQe9anw+S+j0nLgYdO74iPQO9S1pgV65chY9XZUj1VZcb4wHpItti01OWA5JNAibCxilUp07yDy1E/r40qoYNFHl9FCiNK/2lSd93g2rC8sRKXCoCyIzVK+Dg4IDffruBXr7+Wq0PDxuGEWyCkDh1cpXSP0iKh5ubKwgUtHrLJ4+Uid1ERkZj1+498ijQYI2fEysBTy2RBeik9c0Ro7gf0dXFGXPn6oYQlRN9kluYQ4a+gdOnz0jVdu3ixU4+Y6Sw5g1ZhAGBwWqT0s+vFwhyJJcuX8azzZtrFuNhXQdC69dlokWLZ6X8NKEE3Cly7boNSExUwVzKVMU3FQXk8vSlaNvWUW/vyJoaMHCwWroYh1evXmWLpq1aGgVIH2lpy9nCOkwrjSLoMy0aizS2hAhAGnoXBNihr4fhzJkfRTH+26bN86DnEIu3WiILiDo1D2locdu+Y6u0yGmWo/D69dmIZ4ZAdRKjAfmRs4a1R0/LWEZwUwGu9OCmhhlsXIJw82g2alnboNWEXUAN7c9qHv5RhPPzuqGEgYOQWBYkg7PrmES/YmAaY0FWFpCi42RNZazJZJApwIg3wxAUFMiTyErr3qOXyAZHxzZIT0vlg5UGdGbWOmRnb+SfoAT1CZROoi9evITgfgN5PisrK7i5umDq1Mm8nlmzZuPQ4SPcgqT6SfQBkg5vUpek8Hpowq3JXItNGzejabOmCA4O4uWo/I0bN9DbP0ialHJAUvqp777HRx8twSn2BYBPr1cxccJ4fqpKk/1VHz/cvMn8zkzkQD/BTtsnTnqffz7i3LkTYmJn8slGlq+nl7fR21TeQAUvFQFkhw4vI2XRfN7i9evXkZQ0DydOnkT3bt0wZEgoGjf+F08b87/x+OKLY1LPxDikiCtXrmJWzGxcZovM6LdHoWfPHlI+0l1q6jJks/dBCwpZasLCo13E0aOfSXkFIEXE1m05WMcWmjp16qB/v2BuAVIaLa6+fgGSu+aZZ57Btq2bYG5elxfds2cvW6DW80W9X3Bf0HsWognI8PB3QWOS5NixL5G6NA3Xrl1DYIA/QkMHcYuyOn4VYDQgUzoX8hVeDWSkFQ1IWrb3RIuQebiwchSKTn+Opv0jYdU+iHJqyfW98bh9OEtVB0tVq5sHSuNYWr+NpgUkDebvfzit1SeKIKAQYISYApC6VtFlSxeD4EQirDy6pwlHE4+EPtegzzbkQlv+9u3/w6P69h3AV3cKyAGo6xRbni63IFNSFkifB70fPkXr+8ikxHi4u7vy9iKmRoEmEIkckOQ/1HQ/DHt9CN56a6RWObKMvbw8ebyLq6cEXIp4oV1bXoYsmRkzY0EW1qOSigDSx6cn/Hv78WeYEhEluT2oz61bt8Kqj5fz7m/Zso1DkAfYRQCSLPMePX05jETahg1ZkjU+f/5CtS1qE+aH3LI5m2fVHFNyQNLWdsHCFFEl/50eHQXqL0kKW8jS01fwe/kOaPuOnYiOnsnjxWXs2NEIHTyIBzUBSWmObdrgCntPM9n7ksuY0W/xRYLi6KuJ6vRtqfGA7MQOBzgMVZaiBEZ6egFJZj22mpCFuo1bo/jKKZxf8BrqNLKFwzvbKZeWPCjOZ1YkO/mmbQLVwXLog6SpAanVGVkEWS9yX6IpANnzVV/JghJNkYVBg4iELEGyCEl279oOKytL7ljvP0A1MHlC6YX8UV5eKl9nLvM1iYMbOQCNAaRo76ef/g/yTWoKwUr4zMgqERNBDsjk5IVYtTpDrai1tRV27czhcTQZaVKSjB8/lvk6B/B7mpCxsXGVshSffvppXpeuC1lg5T1oqgggdbUpj9u/bw93rXz99TfMJaJ615QuAHng4CFMYha0XGbOmCZZkR6e3lrfswoQHjp0GBMmvicVFfEEXX0fc4s85BsdO24CLzuf+a87Mf807R5owdIl4jk0Aakrr4gjy3TvJzt5kGBN0K4uYjQgFzmRBckej8NQNyTrt3OC/TDVJCBF5KW9gaKzJ2HoE6Bftkej4NgWbp0agmT/TXVMolsxMOmw4+bNmzrrpEOV14YMk9IqC0h9g4qc3nQ6SDJo8FB2+HKOb3MFjHbv+YRtmadJ/SjrpiKAlMPP0AfGNNBpwMv9aXJAElgJsJoi9E3wJIiS0Klq5ppV/FkpLA4ejh8/wV0QYqGgtLKEDqgWLUw2mE1unRvKWBlA2tvbcauYPtS3aWDD3AQWfMsqtsP6AElbUtpCyyUycgp6+/ly94h8oRZ5DuTuBZ0W6wPk2bPnMDh0qMiu9puzbRMaNWoE2kH5+qm2xjk5m9GoYUP+lURv/z5q+UUgI2MlHFq21PmhOI0h2tF4sO9w2zFfbH12QGvOfJMWFub8nup4IgBJD6oXkgycDmPTUa+F6n9yUN6iiyeQlxKGus3s0HLMRorSknu3ryDvwwDmlX5gEJKmBuSj9EESjMkS0BT5wYgApL29HbIyV/Os8m2QZlld4YoA0t5e1l7KYqQvX6mraqzNWs3AZsetsS5dVT4yOSDpAEfXdlgXIKkBmlCxMTPRsOHfJ/SiYZq85LMjGJcldDJPJ/iGpCoBSXCg/6FEJ7iGRC8gGRwJknKpLCA/3bdf58k5tZHGfNvkxqBPkNzcvXizhw7uZ77CWjD0v8cS4mfzg0PNxZ5gu2L5Mp3vkVdeeqlugPwLAAD//9fDHzYAAAtpSURBVO1aB1hVRxb+IUrUBEskoijIy6qoa0UsUewbNUrERlEMGrN2Y4ldY42KCggiqBELYoz62RuISgLYNTEaxbaoWEGDoGILFjJn3pvrfQ9IfCzwWHfme9x7Zs6cKf+d+99zZjBr2KhpJoxIIQ0fwcxMa8DvTDZjgpDfr1obVQevydLildDeeHo5HnZfLoRl1RZZ9FSQtHUs0k9H87aoTWh/SttU5LG9WLa2xhYeP3aIm2zdth0+PvPfyPyHtatRpUoVpKTcQ8dOnbPYDBrYH/369eXljRo3U/QL/OfD2bkZnj17hhYt2yrlQmjTuhXmzp3Ns728+iAhIQHm5uY4cjiOYxsVtRdTps4Q1f/23rJFc/j6zuX1xo6dgNi4A3o2ar13n364cOGiXn+7d0dixsxZejYis29vBEqVKoVr167Dzb0nL3Zx6YipUyZz2bVLDyQlJYnqyl3g/f3aHxAUFKKUC0GjsYdbj+5wcnJE5cqV+bxJ9/z5c3RyccX9+w8om2MqUqQIatSonqP+1atXiI8/l6NerfDzm4cWzZ1BNk0+bq5W5SgHLPBFs2ZNuZ6eM/V18tdTSE1N5X8+c2ZxjE+f/g39BwxW2hG4hIauQOjylUo5CVOmTMJnLp3w8uVLfNw06zsTFxuNYsWK4eDBQ/h69DjF9vChWBAeFy5ehLd3P6VcLezYvgXly1vrreXIiB0oW7YskpKT4eraXV1dkdeEr4KDQzX+XJo5t1LK90ZFoHTpUjz/4MED/PzLSVy69B/cu3cPDx48hO98H64LDlmC8PDvFbvCLpgZS5DBTlqC5ITIZsfvRGRMIPkfQ0JQsuprchAAPLpyFInLBqOEpjo+GrhOFOvd/7h3FdeCewCZmbyt7EjSc4fpCDI8fCWqOzjgyZMnaNX6E72xU8Znzrdo27YNL/9vCZIaEYsuMTER7h5evF31hUi0UqWK/MVLTLymqNQE+KYEScb790WiZMmSfGH3/ryv0p5aOHrkAO8vMjIK06bP5Kq8IEh1H/Si+c6fi7p16/DigIAgrFu/QV0lX+XcEGRMzH6UKF4cjx8/Rus27fTGR8+JSIvuBUmQ6enpaPuvDnpjEZlDB2NQtGhRnDjxM4YOG8GLlyxehAYNHLOQn7Che/T+KFhavq9Xp1y5cti1cyuv9gsjxsFDvlKbwNGxPpYuCeZl/xcESTMlMuTkqJPJ23vPvhqqj9rIgTC8ZL5gX9VpzsCrl9AMCsV7lZ0Mq/D8zQ1D8eTcEda46IME/uP9ee40HUGSl0RkkMkIvMOnLkhLu6/MgRb/j9FRKFGiBC/LC4JcwhZVA7a4KI0dNxGxsXFcFhcfn1lo26Y1z3p4euHq1UQuN2/eDP5+Wq84bPUaLF68VJjwu5pAhQdJitBlSzgp0fyGDB0OWuzqJOZPZdOnf4uIyD1cnVuCnDhxHMpbW+Ms87bIg1In20qVsHmzlhQ3bNgI/wWBanW+yrkhyGNHD7L1aZat19a5swu+mTyRj7kgCZI6JG+dvHZ1GjlyOHr19OBF5LUK7NUR0Nq167AwSEtqwtbbuzeGDdV6v+TZCw+yZcsWioe4cmUYln4XKkz4PTDAH02bNuHyW0+Qixroh9hqkvyovx/K1M7qWREyKYdWI2l7AGc9SwdH2PfTfyE4euzyLDked3bN4GSY8ftNZP7xjC88QZI9d5mOIDt+2oERwxQ+1OvXb7BQaRAnyYoVbbDA3xcajT3X0SUvCLJevbr4bmkIn/+LFy8Qwohu27YdPJTp6ekBd3fmbbN0+3YSunTVypSn8Wzdov1QpaWlYeq0mdxToJCRUk4E2aRJYywM9Of9ZWQ8Zy/XIuyO2IMPypSBl1dPdOvWhdunpz/iYS+FkpRyS5Bhq5ajZs0avA0Ku5avWMW3ISwtLdm8g/l2Bim7dnPDrVu3eb2CuAiCpA/FyFFjcuyS9MePn+Ch+O7d2/GhlRWvO8dnHiIiImFh8S48PdzQv/+X2jXMtAVNkDRGwnXz5q087Pb0dENvr158nPSMO7t241sAVGBlVRbbt23mniXliVjXr98IWntuPbrx7SMe1TGdmiAtLIriQNxPfI5Pnj7F+PGTcOzYcVSoUAGjR4/k2xXUHqW3niCDHLOG2ESSxWzsUGviTi0KBtfMVy9w3qcdXtxPZSAypbkZqoxYi+IVahrU1M+mxAQiNSac24hwu5cJCZIWAi0g2qcRiRagWDS0OCjMopQXBEntqEmZ8oaJFu+wr0bi5Mlf9VSxMdEoXvz1x4TG2bgJ8+BZyokgSUckOGH8WBKzTfRS9XDzQHLyHUWfW4JUfwBEYxkZGYxYLEQ2C6EoinwUBEG+SRe0F0170l980QeDBw1QTNTrgj5M9Ef7ggVJkHfu3IW1dTllTGqBxpddlODk1AAhwQuVNa22IVm0qSZIKl/Goo96ui0Ryqvn//DhQ751Q+VvP0HWf6QNeSnsJbJjie6avjNh5eSqLTC4ppzYhFvr2aa/zobqW9Zxhn3vYIOa+tmUmCCk/hSmsjNDr92vX3r92sblxOb4li3bMHee7xsb0wHF6rAV7OtYXm8RHTlyFGfOnMWAAf/mbakJUrxwOR3SqEMUdagsBuXu1h1DhgxSwncqpwWYlJTM9o+GZ+tdEflMYiGsvb29aEYhbTpMoEMFSrTXeIltpquTB/N6PD3c+Rxp64ASEVdCwmWOFR3qqJOaxF0+64q7d++q1VwWISh5ivSSiKTR2COQea0UaosPDekIq3XrNmDJ0mWULdBEBwr0TN4kte/QSdlqIa9+2LDBigdG9nRgMfmbaZgzeyYniVOnTmPAwCFK02IdUlhK4ak6UVhO4fnfHdLEHTiIMWPGK6Zif5H2iePj4zF8+DC9j87Tp88QELiQRyOKkUro0qUzvh41gh8AiWJ6/gGBQZwE27dvp+dBijqEW3N2uCXWDJUnXL7MvMjxzLHYxKtlF/IL+8J4N/qQZmH9dMZzxHRaYiSys7Aqh3rTo1iB9mXSmyh7kc/N74iMu0lk8truHXNUG7MZ71pp9KqrM78TQf4YxglY9OcVofXQ1PVMIdMiqF27Fn+pz507zwkkv8dhY1MBdnZ27IVMw8WLl96oOzrlpIMXOlh69Ih93IxIYo7UH20p5Hei01H6AJ1lHxryxv9XE50OazQatid8Vc/TNuV87OxsYWtryz6mt6A+0PurMWk09rCxscGNGzeMev70HGmbhD6kxq65vxqPKXRGE2RgPUaQRI6csdidyfa9xsPaWbuvYTiJtN+ikLiKfd3IhtuxGjq5TMNPYOues/dGBHmPCJJM+IV5PJGFgyAN5ynzEgGJwNuHgPEEWTddITgiyaKly8Bx1l6YFXm9b6SG6bxfNzy9eUUhODVJmhd5Bw4TdsKitI3aRJE5QUaHaftjpWTbe48kSAUgKUgEJAL5ioDRBBlQR+tBCi/ww6adUMVb+0+ghiNNPbMPV0PH6AiV0anOC1ST5AeNOjAvcq6hKc8nR8xG2uFNzI4Zan/4PEoSZLZgyUKJgEQgzxEwmiAX1NaF2HpkpyMwulE5S5zTVLKWULMnSaUuE7jMG9C1pWtTkKS3JEiOr7xIBCQC+Y+A8QRZSxViEwEKAtO5eArZkUqno2mQnBck6b1XepCEp0wSAYlA/iNgNEH6M4IkrlOIUSE+KiJGZD/dH69mIGv1ufck++wrkf+oyB4kAhIBiQBDwGiC9PunOMUmaxUZCjmfSbLvfkmQcuVKBCQCBYOA0QRZMMOSvUgEJAISAdMjIAnS9M9AjkAiIBEopAhIgiykD0YOSyIgETA9ApIgTf8M5AgkAhKBQoqAJMhC+mDksCQCEgHTIyAJ0vTPQI5AIiARKKQISIIspA9GDksiIBEwPQKSIE3/DOQIJAISgUKKwJ+R8BUCerV1NgAAAABJRU5ErkJggg==;" vertex="1" parent="1">
          <mxGeometry x="420" y="240" width="328" height="44" as="geometry" />
        </mxCell>
        <mxCell id="VVkOHHsC4mun2wqV-mM1-4" value="" style="shape=image;verticalLabelPosition=bottom;labelBackgroundColor=default;verticalAlign=top;aspect=fixed;imageAspect=0;image=data:image/png,iVBORw0KGgoAAAANSUhEUgAAASQAAABOCAYAAACJ4WtkAAAMaWlDQ1BJQ0MgUHJvZmlsZQAASImVVwdYU8kWnluSkJDQAqFICb0JIr1ICaFFEJAq2AhJIKHEmBBU7MqigmsXUaxYEUVXV0AWFbGXRbH3xYKKsi4WFEXlTQrouq9873zf3Plz5sx/yp3JnQFAu5crkeShOgDkiwukCZGhzDFp6UzSU0AAFGAI/IEulyeTsOLjYwCUgf7v8v4GQBT9VRcF1z/H/6vo8QUyHgDIOIgz+TJePsTNAODreRJpAQBEhd56SoFEgedArC+FAUK8SoGzVXiXAmeqcJPSJimBDfFlADSoXK40GwCte1DPLORlQx6tzxC7ifkiMQDaQyEO4gm5fIgVsQ/Nz5+kwBUQO0B7CcQwHuCb+R1n9t/4Mwf5udzsQazKSykaYSKZJI877f8szf+W/Dz5gA872KhCaVSCIn9Yw1u5k6IVmApxlzgzNk5Ra4h7RXxV3QFAKUJ5VLLKHjXlydiwfoABsRufGxYNsSnEEeK82Bi1PjNLFMGBGK4WdKqogJMEsRHECwWy8ES1zWbppAS1L7QuS8pmqfVnuVKlX4WvB/LcZJaa/41QwFHzY1pFwqRUiCkQ2xSKUmIh1oLYVZabGK22GVEkZMcO2EjlCYr4bSBOEIgjQ1X8WGGWNCJBbV+aLxvIF9ssFHFi1fhAgTApSlUf7CSPq4wf5oJdFohZyQM8AtmYmIFc+IKwcFXu2HOBODlRzdMrKQhNUM3FKZK8eLU9biXIi1TorSD2lBUmqufiKQVwcar48SxJQXySKk68KIc7Ml4VD74MxAA2CANMIIctE0wCOUDU2lXfBX+pRiIAF0hBNhAAF7VmYEaqckQMn4mgCPwJkQDIBueFKkcFoBDqvwxqVU8XkKUcLVTOyAVPIc4H0SAP/pYrZ4kHvaWAJ1Aj+od3Lmw8GG8ebIrxf68f0H7TsKAmRq2RD3hkag9YEsOJYcQoYgTRETfBg/AAPAY+Q2Bzx31xv4E8vtkTnhLaCI8I1wnthNsTRfOkP0Q5CrRD/gh1LTK/rwVuBzm98FA8ELJDZpyBmwAX3BP6YeHB0LMX1LLVcSuqwvyB+28ZfPc21HZkNzJKNiSHkB1+nKnlpOU1yKKo9ff1UcWaOVhv9uDIj/7Z31WfD/voHy2xhdhB7Ax2HDuHNWH1gIkdwxqwi9gRBR5cXU+Uq2vAW4IynlzII/qHv4E3q6ikzK3GrdPts2qsQDC1QLHx2JMk06SibGEBkwW/DgImR8xzHcp0d3N3B0DxrVH9fb1lKL8hCOP8N918HwACi/v7+5u+6aK3A3AwDW7/a9909h/hf7Q1AGc38uTSQpUOVzwU3zBtuNOMgTmwBg4wH3fgDQJACAgHI0EcSAJpYAKMXgjXuRRMATPAXFACysAysBqsA5vAVrAL7AUHQD1oAsfBaXABXAbXwV24ejrAS9AN3oM+BEFICA2hI8aIBWKLOCPuiC8ShIQjMUgCkoZkINmIGJEjM5D5SBmyAlmHbEGqkV+Qw8hx5BzShtxGHiKdyBvkE4qhVFQfNUPt0GGoL8pCo9EkdDyajU5Gi9BidAlagVahe9A69Dh6Ab2OtqMv0R4MYJoYA7PEXDBfjI3FYelYFibFZmGlWDlWhdVijfA9X8XasS7sI07E6TgTd4ErOApPxnn4ZHwWvhhfh+/C6/CT+FX8Id6NfyXQCKYEZ4I/gUMYQ8gmTCGUEMoJOwiHCKfgXuogvCcSiQyiPdEH7sU0Yg5xOnExcQNxH7GZ2EZ8TOwhkUjGJGdSICmOxCUVkEpIa0l7SMdIV0gdpF4NTQ0LDXeNCI10DbHGPI1yjd0aRzWuaDzT6CPrkG3J/uQ4Mp88jbyUvI3cSL5E7iD3UXQp9pRAShIlhzKXUkGppZyi3KO81dTUtNL00xytKdKco1mhuV/zrOZDzY9UPaoTlU0dR5VTl1B3Upupt6lvaTSaHS2Elk4roC2hVdNO0B7QerXoWq5aHC2+1mytSq06rStar7TJ2rbaLO0J2kXa5doHtS9pd+mQdex02DpcnVk6lTqHdW7q9OjSdYfrxunm6y7W3a17Tve5HknPTi9cj69XrLdV74TeYzpGt6az6Tz6fPo2+il6hz5R316fo5+jX6a/V79Vv9tAz8DTIMVgqkGlwRGDdgbGsGNwGHmMpYwDjBuMT4ZmhixDgeEiw1rDK4YfjIYYhRgJjEqN9hldN/pkzDQON841Xm5cb3zfBDdxMhltMsVko8kpk64h+kMChvCGlA45MOSOKWrqZJpgOt10q+lF0x4zc7NIM4nZWrMTZl3mDPMQ8xzzVeZHzTst6BZBFiKLVRbHLF4wDZgsZh6zgnmS2W1pahllKbfcYtlq2Wdlb5VsNc9qn9V9a4q1r3WW9SrrFutuGwubUTYzbGps7tiSbX1thbZrbM/YfrCzt0u1W2BXb/fc3sieY19kX2N/z4HmEOww2aHK4Zoj0dHXMddxg+NlJ9TJy0noVOl0yRl19nYWOW9wbhtKGOo3VDy0auhNF6oLy6XQpcbloSvDNcZ1nmu966thNsPShy0fdmbYVzcvtzy3bW53h+sNHzl83vDG4W/cndx57pXu1zxoHhEesz0aPF57OnsKPDd63vKie43yWuDV4vXF28db6l3r3elj45Phs97npq++b7zvYt+zfgS/UL/Zfk1+H/29/Qv8D/j/FeASkBuwO+D5CPsRghHbRjwOtArkBm4JbA9iBmUEbQ5qD7YM5gZXBT8KsQ7hh+wIecZyZOWw9rBehbqFSkMPhX5g+7NnspvDsLDIsNKw1nC98OTwdeEPIqwisiNqIrojvSKnRzZHEaKio5ZH3eSYcXicak73SJ+RM0eejKZGJ0avi34U4xQjjWkchY4aOWrlqHuxtrHi2Po4EMeJWxl3P94+fnL8b6OJo+NHV45+mjA8YUbCmUR64sTE3Ynvk0KTlibdTXZIlie3pGinjEupTvmQGpa6IrV9zLAxM8dcSDNJE6U1pJPSU9J3pPeMDR+7emzHOK9xJeNujLcfP3X8uQkmE/ImHJmoPZE78WAGISM1Y3fGZ24ct4rbk8nJXJ/ZzWPz1vBe8kP4q/idgkDBCsGzrMCsFVnPswOzV2Z3CoOF5cIuEVu0TvQ6JypnU86H3Ljcnbn9eal5+/I18jPyD4v1xLnik5PMJ02d1CZxlpRI2if7T149uVsaLd0hQ2TjZQ0F+vBQf1HuIP9J/rAwqLCysHdKypSDU3WniqdenOY0bdG0Z0URRdun49N501tmWM6YO+PhTNbMLbOQWZmzWmZbzy6e3TEncs6uuZS5uXN/n+c2b8W8d/NT5zcWmxXPKX78U+RPNSVaJdKSmwsCFmxaiC8ULWxd5LFo7aKvpfzS82VuZeVlnxfzFp//efjPFT/3L8la0rrUe+nGZcRl4mU3lgcv37VCd0XRiscrR62sW8VcVbrq3eqJq8+Ve5ZvWkNZI1/TXhFT0bDWZu2ytZ/XCdddrwyt3LfedP2i9R828Ddc2RiysXaT2aayTZ82izbf2hK5pa7Krqp8K3Fr4dan21K2ndnuu716h8mOsh1fdop3tu9K2HWy2qe6erfp7qU1aI28pnPPuD2X94btbah1qd2yj7GvbD/YL9//4peMX24ciD7QctD3YO2vtr+uP0Q/VFqH1E2r664X1rc3pDW0HR55uKUxoPHQb66/7WyybKo8YnBk6VHK0eKj/ceKjvU0S5q7jmcff9wyseXuiTEnrp0cfbL1VPSps6cjTp84wzpz7Gzg2aZz/ucOn/c9X3/B+0LdRa+Lh373+v1Qq3dr3SWfSw2X/S43to1oO3ol+Mrxq2FXT1/jXLtwPfZ6243kG7dujrvZfot/6/ntvNuv7xTe6bs75x7hXul9nfvlD0wfVP3h+Me+du/2Iw/DHl58lPjo7mPe45dPZE8+dxQ/pT0tf2bxrPq5+/OmzojOyy/Gvuh4KXnZ11Xyp+6f6185vPr1r5C/LnaP6e54LX3d/2bxW+O3O995vmvpie958D7/fd+H0l7j3l0ffT+e+ZT66VnflM+kzxVfHL80fo3+eq8/v79fwpVylUcBDDY0KwuANzsBoMGzAx3e2yhjVXdBpSCq+6sSgf+EVfdFpXgDUAs7xTGe3QzAftjs5iivKkBxhE8KAaiHx2BTiyzLw13FRYU3IUJvf/9bMwBIjQB8kfb3923o7/+yDQZ7G4Dmyao7qEKI8M6wOUSBrhvx54AfRHU//S7HH3ugiMAT/Nj/C7kJj1l3vOiDAAAAimVYSWZNTQAqAAAACAAEARoABQAAAAEAAAA+ARsABQAAAAEAAABGASgAAwAAAAEAAgAAh2kABAAAAAEAAABOAAAAAAAAAJAAAAABAAAAkAAAAAEAA5KGAAcAAAASAAAAeKACAAQAAAABAAABJKADAAQAAAABAAAATgAAAABBU0NJSQAAAFNjcmVlbnNob3S3yf9/AAAACXBIWXMAABYlAAAWJQFJUiTwAAAB1WlUWHRYTUw6Y29tLmFkb2JlLnhtcAAAAAAAPHg6eG1wbWV0YSB4bWxuczp4PSJhZG9iZTpuczptZXRhLyIgeDp4bXB0az0iWE1QIENvcmUgNi4wLjAiPgogICA8cmRmOlJERiB4bWxuczpyZGY9Imh0dHA6Ly93d3cudzMub3JnLzE5OTkvMDIvMjItcmRmLXN5bnRheC1ucyMiPgogICAgICA8cmRmOkRlc2NyaXB0aW9uIHJkZjphYm91dD0iIgogICAgICAgICAgICB4bWxuczpleGlmPSJodHRwOi8vbnMuYWRvYmUuY29tL2V4aWYvMS4wLyI+CiAgICAgICAgIDxleGlmOlBpeGVsWURpbWVuc2lvbj43ODwvZXhpZjpQaXhlbFlEaW1lbnNpb24+CiAgICAgICAgIDxleGlmOlBpeGVsWERpbWVuc2lvbj4yOTI8L2V4aWY6UGl4ZWxYRGltZW5zaW9uPgogICAgICAgICA8ZXhpZjpVc2VyQ29tbWVudD5TY3JlZW5zaG90PC9leGlmOlVzZXJDb21tZW50PgogICAgICA8L3JkZjpEZXNjcmlwdGlvbj4KICAgPC9yZGY6UkRGPgo8L3g6eG1wbWV0YT4KgDz43QAAABxpRE9UAAAAAgAAAAAAAAAnAAAAKAAAACcAAAAnAAAIkwGSrSwAAAhfSURBVHgB7JprbBRVFMfPbh/bN31aSilCEYOkWI2PKMSYiDGoH/SL4iuAxEhMNAGiEERQNBGtJpjwQT4gJEA0NYrgI+ElLSBojEEB27Tbl/QFW+gD6Lbb53rOnbkzO8POsqV0HNtzG3Zm7j1zzr3/e+e3Z+7iKp73ZBC4sAKsACvgAAVcDCQHzAJ3gRVgBYQCDCReCKwAK+AYBRhIjpkK7ggrwAowkHgNsAKsgGMUYCA5Ziq4I6wAK8BA4jXACrACjlGAgeSYqeCOsAKsAAOJ1wArwAo4RgEGkmOmgjvCCrACDCReA6wAK+AYBRhIjpkK7ggrwAowkHgNsAKsgGMUYCA5Ziq4I6wAK8BA4jXACrACjlGAgeSYqeCOsAKsAAOJ1wArwAo4RgEGkmOmgjvCCrACDCReA6wAK+AYBRhIjpkK7ggrwAowkHgNsAKsgGMUYCA5Ziq4I6wAK8BA4jXACrACjlHAFiBl5X8ALpcL8EM90mnINVjUS3uUy+VGe80u1N5N1eRQ+BR+SV6Xm6q0OLJdOar2dCP6pdulvdFOOIDKg8+QBRdWgBUYYwXsBRIOxhosysOvAAUhIQBEQFGAYwCYMDXaS9BIewkWDVBuBBSJKQAUcq8AGXVMQu5aQFUeepbu5MIKsAJjrIAtQMrM22gBIgkB4gHhAq8jgki1J0thJ++XR9WPhIvBnxlCdK3aa3a6Hwko6lfl4UVjPA3snhVgBUgB+4BEwJGgEKeY+VAHogIL2an2Bj86QIxAM9VrcdX6KOLKvjKQxDTxBytgiwK2ACkj972QzCcUTBbgoIxFgIcYFuGVLUxmE9aepLTYU5JxBIAoZTK80tF9Lqg68rwtk8FBWIGJroBNQHpXBYwEjTzS844Q0ABkqpeZjQYe4kq4TEn1E2pPfuW1CKH41gGk7CnJDE23JTvqkuwLA2miPyQ8fvsUsAVI6bdswOc7BBD0vIcFi4SACphQEIXNlFR74U9QxBhHhAyNi/baHlVIvQYfc1zFf1X5C/bNCEdiBSawAvYAKQeBpIHA6hVMzXyi2lOKEiwSNFoGpgJH1ssjLgCZKRnAqQKtqvzFCbxEeOisgH0K2AKkSdnvGDMXQ+ZjnalMzvHA/HvSoHB6AuTmxENuVhwe4wzq1Df1gb9nGBqa+uGMNwAVNQHo7g2q8QhACgDxRNQpr4jowmJPSbGjdrTHP9pT8h59yRCTL1gBVmBsFLAHSFkIJEPmQ897GBDhGMlu4cOZ8PTjOTDz1oQbGvWHW33w2+leBSoUh8AigEQHC0BF+H9K3mNjB6TMOUXgyciyHmcwCL2X2sDf0gwD/m5rO24Zlwqk5BdA6vTCiGPrv3IZ10cTBDraI9pZNUYTg9Zer+889LT5IDg0ZOVq1PW2ACkta52SbQguKEAwAAmHQSBKTY6FjW8VQvGcFDEwf88QnPzjKtSf64U6zIR8FwfA1zEo2iRYimcnC94Uz06CubMTobDAA8vWNoI/ECSvJvARkCScFFApoDTVC3iRnVLvPb5YxByLj/vXb6IgUbkODg9D/1VcfM1N0PDTdzAUQOhyGdcKzH1tJSTm5EY3RvzyGujxiy+wxv3fQ4/vQlT3jSgGegx0XIL6vV9Dd3NjVP5HYmQPkDLfjgACHVBrXp8Oj2F2RCDaurMV9h/tNGVWEjAmgOCIzZvkqckxMGOqR3nYBVhIFvV+PFbU9dOlsV8SRMIfQUKx9/7iDCDRCGQZHhyE+n2l0FFxVlbxcRwqMFJYhEpw/uRRaDq8H6voy9m63GiMzupKqCndae34BlpsAVJqxlr9wRcUMIGAHnzMkH7YeRckJ8XA8tVVUHcuQEbqfWHsKasQQNGBJu1zs+Ngy4YC9IVtFqWhZQBWftym+Ccbiz0lyqhqTiyx8DL66rAZEn7TaYXGGaF01XmhtnQXDA8ORLDipv+rAmFhMYL10Xe5E6p3bYv4OmeOQa9klI3LQl/2rpgYeWk4th77GZrLDxnqRnNhL5Cwp+KVSQUQEUV5hVLqj3x7rxjLwfIOKPm8kZp1ewEgoz026u1ijwrtUbxVy3JhwbzUiLr8g0Ba8ZEKJHrmVV+yPwJQVI1+a04sjehrNI1mIFVs2wL+1hbNZWxiEiRPyYeUKQWQWVQcNn2/eOp3aPhxj3YPn4wfBcywaD2OACjTAeCOjYXkvHxcI1MhrfA2SJ91xzWD7+vsgNNbSq6plxXmGN6vdkBXTbVsFkd3bBxkFd0J0xY+BTHx8Ya2s1s3Qy/uLd2MYguQUtLX6OCQYBG0IQ7oGU7Znvu0Mfna+uFAeTvuIV2B2saAcr8EUCioJIhUP3nZ8bD9kxnCz9pPW+Es/vJGRdkrcsHKpdnwyAMpsP2bLthXftXoVwMl9UsEEcfaX18WPsbi43pAMsfMe/AhKHj0Ceqg3oTfmH99tgn3l67odXw2LhQww8IMJPMg02bMhFmLFiM0cLsipNTvLYVLZ/4MqdFPzTHCAUlae9IzoPiN1Yb111x2AFqPl0mTUR3tAdIkFUgSKNjl0AcerwQwJJB8F/vFz/xyZN3+IbGx3Y0/79MGN9mLQv7oBD9278NfGPD6zVfyYMH8NPjb2wtrSlqMcbC9dPM0SEp0w6vrW8HXOaS0U3xsIz+GfpF//OckINFwk3InQ9HyFXSqlcv1NVC9+wvt+r86ifF4IGnyFBjEX2UC7e0QDOqpf7R9oqzQk5EJ5GuoLyA2Z2/WLzsJWdlA/ikLDQ5H/rWIXlOScSzDaNeLG8ShrzHRjkWxc2FmmwOxCYngv9AKwwPRv16bYXE9IFE8d1wc3L1qHeqn/0pNOp4qeT/sfJhjRAIS+Z/13BLIuF3PxLpqq8H75Q5qGnX5FwAA//8B1H2uAAAYh0lEQVTtXQdgFsXynySEhHRaKhASEjqEIigIFmyIYMGGBUQEFVFBigoqIiBF7MjDXgAbKuITbCj4F3h0CKEESCOUkARCCClACOE/s3e73+1+9yVf2vcS3i1Jttzszu7e7e9mZmcPt7jet1yEGg6+Ac+Cm5sb4+LmTrGblscy+sd+MP338ssZzbWDt0LXTgHQ/9rGENfBH0Ka1i+3h/2HJUJoU0/4/I0YRvv83COQcOCMxLdXFz944YkQSDtSDGNfPabzdWcxEjJa3k9wc6ciVpay6ZFy+VeWoOdLs4mJqL7n4/lQmHFU5B0lYu8dBg3btJcu7/7wHSjKxHFhaDdiNHjU8xTXM9avgZN7dom8o0S74Y+BR30vdpkejOSli+HcqVxwx7baY5s8ZG5cCycSduA0uUN4337QqH1n8ApqCO6eNp5Ee+Z4FiR/twTOnDjOq0qxh5c3NO16GavvExJmV58TF+efhmPr1kDWlg28SIrt+rdpHZzYuR3qNfCBFjcMgIBWraG+n7801+fyciFj7Wo4vn2LaCuodVsI63MtNGgSDPW8G4hySpw9eQKScD7OZGdJ5WaZ+v4B0HLQneAbGg6evn4S3wvFxXAO23LmnnQa/Qw0aBoiWGSs/QuOrFkl8o4STbv1gKiBd0qXj6z+HTJwDtWg8jjw9WdwKmm/Sibyza+/GcJ6Xy3yZ3OOQ8KCN0S+Kgk3lwCS/yS2sGnhsQXPY+y5BgBYjkBlA6QtEp2/Xz2IaekDocH1EXS0xUJtUeAAsnj5cZj4aARc3ycQdu0vgucQkLTrGuAQ3fgRwdCvlz98sjQHflqTzx4Szp/aoybdEIgIILW81t/aCEieuLi6PjOF9ZMNFP8YH7gOo54C37AIfgmBIRt2LXxT5M0SgdEx0ObBkbZLFy/CtrnT4ELxOfDw8oLuz70irp1K3g+5+3ZDixsHCgATF00SRrA0Xu7x4iwGasaystKnD6bAvkUf2ZGo/cs/kg5njh2F4Mt6SXNkVxELCDCLT+dB1K134+IPNiORynZ/8DYUZWVKZcYMgUHLAXc4Na5TSYmQ/P1XUHr+vLEJkVbBwllAoga6jn8B6DnhIf9wOiR+tpBnRazyKA+QWt1+DzTu3E3Uzz+UBomffyDyVUm4BJB8/Cbi+marXY/pGWGr3laOKPDpu52hFQLPb6tPwL8+OwT5RaU6HdKrkpXSnr9vPfjhg7bSXGzcUQDT52ewB5L4LZ0fDb4NEHAMgUlLszLlfiGt6B/yTd1sWKSGutWRrKyERLxV0MlJ2A4py5eybjXq0Ali7nxA6uKON2bC+cICqcyYaX3PUAhq20EUGRe/uuAFkZMJki4S3nvdjrrn1Dl2ZeUVpK34QZJqiL6q/SuPp/E6SXu7/mUuEbQccJsGgsYK5aRLzp6B+DdnQWmJPSipYFERQGrW70YI79NPcCcpM/6tWSLPEyqPsgCJJOKuE15kkievn7nhHzi06heerVLsWkDCrpoCC5UjCPS9ojHMnNKaDaig8AKs35QLKQfPQBL+JiTiQuJAwbBNAxbeHgHSvBdbQnQLbzEhkqSEE/netOYQ1UyXsHSqPUlnYfJbWRIAISMtz/ggIG0ZJdqs7kRVACnmrvuZqsP7VJBxGPZ+vEDPusFlk6dLKtDR//sT6Nc8IP2UGaia1ROX93/5CeSlJLF8WQu+MDMDTqfsh0KUSIpPnwb/yChods2N4ObhIdqixLY5LzNpy1hI479YWsrq5iXvQ9UuG4rz8hhwktpDKlRor6slaeNc7knYOf81YzMOAYnazk3cDQUoMRVlHWN9irj6BvBr1kKqzzMXzp0FAnYaC/XFG1W3yP632kmBW2e9ZAcg3o2bQOcxE3lTWoxSZvbWDXAapYiSoiLGN7j7FVA/IFCiy97yHzj467+lMsqoYFERQGrSuStE336vaPPihQuw5dUXRJ4nVB6OAMkDVVh65gKjY3lVABzf9tdnQMmZIltZFVIuAaQGPuP1Bc4XOo81IOIAMH92R4jrGFDmcLKyiyHzRLGgITkrJf0sLFxyTADWJFLd+gbBh19mwY+rTlHzgv/gGxrCyCFNWP3VG/Lho+9OQkHRRQMAaSobk5B0AEzb+qjgV92JqgBSs2tvQPvNdaJL5wvyYcebr4q8+rYmm8nOd+aK68ZEUGwbaH3fw6KIFiapazyYARIBYPovy01tXoGtYqHNA7LtLfHzhZB/KJ03yWKyr5QltRERgVLrIcMZPf0xW1hm/SObE9lMyGajhm7PvizZiIgm/ZcfmV1MpfUNj4AOI5+Sivd+sgAKjh6WytqPHAN+4c1FGam6REfqsjGQlBE75CEIimljK8aFHf/2bCApxhhUsKgIIJn1e+tsBFJFPVR5kE2IwJsHd7QpegU1Au9GjaUXA4F90tJFcOrAPk5a5di1gESSB1O9bABhXPj//NybDWjIqB1AdqMuHQOhCxq3yXZEqpyjkJBYCBNnpApAWvZhW/D18YDhE5IhK6cEq2l8JzwSCtddqQHe1//OhS9X5BqAiKGWlhcSkgacadtqJyDZvQHxAdkyE+1KeqC3cJdxk3mWxSRZkIShhtb34QKJbSeKs9AonP77CpG3W/C4gDbPkNsWxHrisskocRmM3KnLvzVd8Go9s3yPF16VJC51YVW0f6odxKiemvHv/vwrkpSU/MOX0iaBT2gYdHx0rFQ1ZdlXkLM7QSrjGQKl7s+jBGuQSE/u3gnJy77mJCxWwaIigERzT/fAGPZ8/B6+QDT7Ki9XefDy8mKztsqrU951lwCSt/czZQIRl2DWrujD+pucVggvzjoAx7LPIUDIEktXXYLSbDwasIUGe8Hv/+QyQOrS3g9VtyjIPnEehj6TxPj6ITi9NjkS1TkvKDxTCh99fRxW/cdo1MaqpjYqrf2D2x8vbx4rfb0qEpKZFLJ5+vNSXzo++jT44E4PD1mb10P6bz/zLItpjkldM6pYJGmRxMVDRRc81Yt7+jm288bbSP1pKdv54vmKxKqBdttrr8AFtL3wUNH+NbsGpcurbNJleYAUNxbHEtiQswMVkIK794SWtwwW11UJU1wwJCJvGgghl2vPPBWbbTyoYFERQKI2VRudmTqm8qB6TgV8KWWhOppuomo6Vd+EyEWANE6XRLiqpsfYIXpTUCCAWbvSdnOobN0mtBXsyof4PfmQnK49fCpAaRIW1dfaGfNQONzevwks/y0HFqLKFhPZAKaObYauA55QiEby5+cehpTDxU4BJDbK+lVbASmkRy+IvPk2mioWSBQnycEYGnfEjYLB94si0vW3z5su8pRo2LY9xN4zTJSRTWjPh++KPCUquuCpTqcnJuD2eVNKsuCshERuB6QOGI28JOkZ7S5VBaQIdFWIuPZG3jUoD5A6PzmJqSy8ggpIkTffCiE9NAmfaGgX8sBXn3Fy0zigZTS0HWaTvknFIzubMahgURFAYjuxuNNmDAnvzUP3hRxjkZ2dijYgzhcWSjTu9Txw/oPA08eXFpt0LS81CfYv+UQqq2zGJYDkVX+sIoFoAMQXPI/X/dKXjeO3P7Ohb6/G4OvrIY2LDN0pB23GsxB0ASB17uV5qbB+K+reOFFfzW8Hwei3NGlmKvihoXviYxFMfUs9fBaenXWISUicn4iRi2MJyR3S40dL/ajOTFUkpMj+gyCk55WiO2bGXhyZnXF7z0fvotE2Q9Rr8+AjkqEy5cdvIGdXvLhOiZoEJGq7xQ23QGBsW+azw19SZCs6X1SIKmYO+EW0kCS42gZIbYaOhMCoGDFn2ds2wsGVy0XeLGGmUm+ZMQXtxKWCvCqAFBDVCtoOlTdkNk8nNfuiaJ8SKg8zKYpXIMN29KDB0LBdJ17EYmdfNlIlk4yLAOlpXPuy6qWpXCiBGGxK6369inWx78D1EODrCX17N0IHyUCIifaFsmxIi7/LhC++z2TgtGR+e5SELsCPv+bAg3dqPiV/rj0F76O0VIDqmj1fk34xc5LNppQe/4TJ1FVPUVUAqfX9D0uGUUdvqqiBd0DTbpeLDhvdA2jxXzZlJt4HTcIsLSmBbbOnSouCKtYUIJFTJKk6nL/oZDmJ2gZIqgR1dM0fcBSdLssObqhSzZZIdr47lzmi8kIVLCoiIakStJkERnxUHmUBEu+X6nLiyKWA0zsbuwSQ6ns+pQGBrgLRW9umatkW/vrfNO/Pm+/ZgDtfF3AMnA5j/BcW6gVhwQ2oWAvY3s696A6AgYDtrgEhMHp4hHZN/7vkh2xY9GO2k0Ck89Pb4/wPJYyR2qzOTFUASbVrmNmHqK/1A4Ogy1ibbYl2lLbNmcqGoforGcHKOM6aACRVZRH80DZBwMgMvop6wGlqGyC1fwR32CKa8+4BebIf+mOlyJslyIu82yTtPvDrqjuBChYVAaTo2+6GJnHdedPMW97Mf0rl4QwgqbuyxES1XwrGFUi4BpDqKYCkSCCIFgwwFsyLw121IEhOLYQpMxLh2HEyamvoowEYBwyMhWRlk3DeeqU1dEajNgWSkt5flAG/o3TEgYXzIUCT2yNA0yQEqVzvV20EJDODtpnDIJsM/NPxsbFARzN42Lf4IzidloI2jFEQ0LIVL2YOf2bHPGoCkOKeeha8GjYSvOkNnvbTd3AS/YZ4IL7kPd36/hHSNn1tA6RWuPgbGxY/+T4loQd4WcE3vBm6EzwpSAiEt856UeQpoYKFs4BER3II7PhzTW3lHtgLSd8soqQUVB7OAJL6kqMG49+Zgz5ktN4qH1wCSJ4eT+oAoAMByTvSrpZWfnXvpjB7WkcxmrUbciA+IQ+SUosgfq9mI8KaSKy3owMGFQT414OfvujC6hIYTZiWDMmHzsp8DfQa8FA7NkDDjEyv9/PwLtkHRXSwGhKVlZDUHSx6mLfPe8XOx4R3sXGnLtDqjiE8yx7O5KVfQo8XZtIksHJzG5RWpboByUw62I22rSKDbUt0FhO13agd1vsqaH79ANFlR57pggATqkpFZwZJZTMGFSycBaQoPEfXtGsPY1Ow91P0nTpyWCqjjMrDGUBSwZTaUdVNKqtocA0guY9RAEhZ+DoQLFvcC0JDvFFCKkC7kSbpqAOK343AZAgEUOOm7oMA9Fv66v3OkHW8GMZPS0KVr5RwSgMYAhZadCrg8LwOPNQsf6MY6Q/vrl2A1Py6/hB25TWGWQA49PvPkLlpvVQmZ2RPbDIYp61cBtF4fouHstqobkDybxEJ7YbbNgtoV83oQ8X7xOPaDkhmEuuu998q8yCuqnLnpSXD/sUf8yGzWAULZwCJOZLe+xB73nljZm3zayoPZwBJPZai3T/a0ZMN5pyHs7FLAKme2xNOAcKGVf1Yv4eP3gqZ6IN0Ve8m0C0O7R+dg9Bg7eVwTNfcsVluHynvHhgKvXsGQioeO1mAqpsRYCSgMlH9bMClAdmRPU875F3VCxWRkOg0fZsHRoB346YSW9VDW7poyEQNHIzG7Z6iRNhpqATtNszZECUts1DdgERqWKfR4yVWjg7gkodwx8fGSU6WtU1lI0m727NT0fhvO7pEnuyJnyy02yCgQatOrVRmPKpDeQoqWJQFSGRza3XHvXY7YHRvzbzANQ72PMoDJJ+QUM0JlF7yeqiuA7YuBiSDxGKism34U3NUKygogXffT4aVf+IZM4NtJxalJn8/T2yE/bA3AAHNjt35ugQGEI4S1rB7wuEm/HQJhQQ0eo+fnowYo9uIJL5cctL7ZSYxYdmRvbIHrn4PqiVSASlj3WqbJzXy9kYbS4PQCObP44V+IASWajB7kFUayhOgkapnFujU+YGvvzC7xMqqG5DoDvZ8aZY0Hnqo6eQ7d8gkPxpyHmzUIc6uX7UNkKiD6gYBlZHPDx2v4J8soW3ziKv6QegVmosL0VCQzyFqZfRXBSTaST25Z6cgoDnypecjOIQd7zA6t3IiR5sd/LrKg+jzUg7wyyx286gHDfCsnl9ktLSzy4m4TZLnKxu7BJA8Lj5uIqEYbDe6yrTxr+ulcRAw7Ug4BTt2oh0JvbcLC0sgKZ38kDiQuEE3PF7i6+cBraN84corGkFMlHzEhADpGVThTCUkIwDRQqcfFtvap/zRxHFSv6ozowJShdrGN18KHsdQfYbKaqPj4+PAJzjUjoQ+S0Gfp3AUqh+Q7L9WwHmTlzMtAOOxCn6Nx7URkKhvqjMo7y9JKaWoJjsaU8KC1+FszglBzhMqWPByZ+Pj2zdD2oplZZJXlcfRv9HF4Z/yXBzK7IK4+N8BJGRvb9R2h42rNUB6dV4i3HJTGFPVRE8rkPhjzQlISTsDo0c0ZxKSACQ7vhx4FCDSAZJYkmR1dF/tAyTypk77+XuHRmBH02WmKpDz4Q48sV1WqAlAIsdAkti4FOyIP6mWtAPHvIR1otoKSGSsj8Vzgf7NIh0NRyon73qSoPhXFaSLmKksWNA9Tf91uXTeTm2b5yvLg9xHDq9aCdnbNvGmqhy7BJDcSx/TJA/srgxEMiBsWqO58l9x3V+MPjzUG7p3aQixrfwhNsYP7UjezOhtHHUKSk7kwR2/6zRKUUWwE4+Z5OMuG515e2tGWwSkfDR6H3DAV+aPvdPpNCDiElPGftnWYeRf1bRTEhK9XXFRFufnQR4eSThBn8dw4quSZn0jgFXPrWX8g18h/HuVGbkooy8yUj0ezE7c82s8Vp3nkr5dBLn79/LLLKZDqbF3D5W2/wUBjvvk3l0IvD/gJ0j6QsTVNglaBaSK9i/08iuhxU2DBCtHW+KcQHWbUI+OcDoe0w4atV8W2JL6lbx0id0nWXgbFDsFFrr0RceCCtLTIAdVOnWejW2qaad4YCUyXBMP2g2k5zBj7RosI3/B6guuAaQLj5qqQnzBMyBA1eivlf3YcY9hozYhuKDDI5ZJKhSO2xTQqNyoamHDI+5rBsPuDYc/1uTAnAUH5etMNXPeplSTgFR9t9LZltzYVr/R1kBn26rrezbO9kKlo21kP/z1xrNv5H5wOj0VP8ebiWRV27VR+bg6TwZ5+vaSLzpN0idx6TtLBUfwCBPGBOpWkGfAJYDkVjJKAwRJAmGoIAHFtMmdYED/cCDb0dsL9sOKPxx8yVEAlQ5E1K4OSGTUvmtQKNx1q+YE+NLcZDyke8og+djzFcDI2xXtUfvucCxpgjxrdTinHralT70mfrqwDo/I6vqlNAOuAaTzI9nCtlv4AgBw4ePuF51fmze7G3SN0z7zQMC0fWcu7Ig/BQfQN6kQVbOkg4Vs/jkAdUPPbqwN3ToHQh88+xaDxm0evvjmKHz+LR4iZRhUBhAJAOLARkBkoz+WNJE3WefjzmMmSG4DZmpUnR+kNYA6OwMuASQofkRa4JjR8jhtZirYoJsjYMjdkcx2VJmZXY+fLfnup0zYsec08jHs5kl8dZXNADyiXxzACKgQKDOTJ1WmG7WujuoZ7Mw3e2rdIKwOXdIz4FpA0hc4zahRAnEEBOEhPnBNn2CIjfWHsDBvCAtpYGfUpo+5kSSVnFIIlF67MReN2iVy+xJfE4BiAOTYppSZUjcBKWbwfezhJcNjAH4u1bhLRRfK8sxmFa0/1gy4eAZcAkgXzz6MAGECBBJQ2FQkLJbpBZ25SiUADSfPTuJijSkAKNpTyrkExSUkPZ+Vau5M6OJ7VWF29IlUj/r1TevR5yJ2vj3H1IvYtIJVaM2AC2bAhYCEq1wCAhOA4oBAlJJHNQGHCb3UnhHQDCohqWSCrhKAhvWz0i4tQCKfHvovibhHtAueM4uFNQNOzYBLAKm0aDgCihEwCGCMeQOASEDkAEAIYFh9B+2wpnUg4nywDvsxBTa8ZMpX45N90PYtIadmtZYQhaHvDv2PrfQ/n5KkRP8Z4qkDicznyNpyriU3yeqGNAMuBiQFQITkopQjiEiAIwBIKRd0ejkOzRRYqJwDE8USXxPJiwEalhMlAlX2wcksbf2xZsCagZqdAZcA0oXCYRogCGAhgDABAgkoGCrIQMKKjIBSDkAZ6TkgIQ/2w/N2AMUqSXyPH5pSs3fBat2aAWsG2Az8FwHJCCwOAArBgkk22FVTyYcDjqBDeqZ6UXv2wEIj1trjdM4B2vFD9J0XK1gzYM1ATc+ASwCppGAoAwKCIEzQHy2vg4adxCIABilNbTs6sAg6DjBKOb/OgUvnS32gfxpfM0mN+OoqG9KeOCJ/VrSmb4rVvjUD/6sz4BpAyn9QBiAdGHCtE4KwX1lyoSJDOaa1vF5O9SWgckBPzRuAhXhpfBR60R6V2wOUBUj/q8vDGrerZ8AlgOTqQVn8rBmwZqBuzoAFSHXzvlm9tmbgkpwBC5AuydtqDcqagbo5AxYg1c37ZvXamoFLcgYsQLokb6s1KGsG6uYMWIBUN++b1WtrBi7JGbAA6ZK8rdagrBmomzPw//dbYY1g0n2YAAAAAElFTkSuQmCC;" vertex="1" parent="1">
          <mxGeometry x="292.5" y="471" width="217.12" height="58" as="geometry" />
        </mxCell>
        <mxCell id="VVkOHHsC4mun2wqV-mM1-5" value="" style="shape=image;verticalLabelPosition=bottom;labelBackgroundColor=default;verticalAlign=top;aspect=fixed;imageAspect=0;image=data:image/png,iVBORw0KGgoAAAANSUhEUgAAAUgAAAAsCAYAAAAHBiHLAAAMaWlDQ1BJQ0MgUHJvZmlsZQAASImVVwdYU8kWnluSkJDQAqFICb0JIr1ICaFFEJAq2AhJIKHEmBBU7MqigmsXUaxYEUVXV0AWFbGXRbH3xYKKsi4WFEXlTQrouq9873zf3Plz5sx/yp3JnQFAu5crkeShOgDkiwukCZGhzDFp6UzSU0AAFGAI/IEulyeTsOLjYwCUgf7v8v4GQBT9VRcF1z/H/6vo8QUyHgDIOIgz+TJePsTNAODreRJpAQBEhd56SoFEgedArC+FAUK8SoGzVXiXAmeqcJPSJimBDfFlADSoXK40GwCte1DPLORlQx6tzxC7ifkiMQDaQyEO4gm5fIgVsQ/Nz5+kwBUQO0B7CcQwHuCb+R1n9t/4Mwf5udzsQazKSykaYSKZJI877f8szf+W/Dz5gA872KhCaVSCIn9Yw1u5k6IVmApxlzgzNk5Ra4h7RXxV3QFAKUJ5VLLKHjXlydiwfoABsRufGxYNsSnEEeK82Bi1PjNLFMGBGK4WdKqogJMEsRHECwWy8ES1zWbppAS1L7QuS8pmqfVnuVKlX4WvB/LcZJaa/41QwFHzY1pFwqRUiCkQ2xSKUmIh1oLYVZabGK22GVEkZMcO2EjlCYr4bSBOEIgjQ1X8WGGWNCJBbV+aLxvIF9ssFHFi1fhAgTApSlUf7CSPq4wf5oJdFohZyQM8AtmYmIFc+IKwcFXu2HOBODlRzdMrKQhNUM3FKZK8eLU9biXIi1TorSD2lBUmqufiKQVwcar48SxJQXySKk68KIc7Ml4VD74MxAA2CANMIIctE0wCOUDU2lXfBX+pRiIAF0hBNhAAF7VmYEaqckQMn4mgCPwJkQDIBueFKkcFoBDqvwxqVU8XkKUcLVTOyAVPIc4H0SAP/pYrZ4kHvaWAJ1Aj+od3Lmw8GG8ebIrxf68f0H7TsKAmRq2RD3hkag9YEsOJYcQoYgTRETfBg/AAPAY+Q2Bzx31xv4E8vtkTnhLaCI8I1wnthNsTRfOkP0Q5CrRD/gh1LTK/rwVuBzm98FA8ELJDZpyBmwAX3BP6YeHB0LMX1LLVcSuqwvyB+28ZfPc21HZkNzJKNiSHkB1+nKnlpOU1yKKo9ff1UcWaOVhv9uDIj/7Z31WfD/voHy2xhdhB7Ax2HDuHNWH1gIkdwxqwi9gRBR5cXU+Uq2vAW4IynlzII/qHv4E3q6ikzK3GrdPts2qsQDC1QLHx2JMk06SibGEBkwW/DgImR8xzHcp0d3N3B0DxrVH9fb1lKL8hCOP8N918HwACi/v7+5u+6aK3A3AwDW7/a9909h/hf7Q1AGc38uTSQpUOVzwU3zBtuNOMgTmwBg4wH3fgDQJACAgHI0EcSAJpYAKMXgjXuRRMATPAXFACysAysBqsA5vAVrAL7AUHQD1oAsfBaXABXAbXwV24ejrAS9AN3oM+BEFICA2hI8aIBWKLOCPuiC8ShIQjMUgCkoZkINmIGJEjM5D5SBmyAlmHbEGqkV+Qw8hx5BzShtxGHiKdyBvkE4qhVFQfNUPt0GGoL8pCo9EkdDyajU5Gi9BidAlagVahe9A69Dh6Ab2OtqMv0R4MYJoYA7PEXDBfjI3FYelYFibFZmGlWDlWhdVijfA9X8XasS7sI07E6TgTd4ErOApPxnn4ZHwWvhhfh+/C6/CT+FX8Id6NfyXQCKYEZ4I/gUMYQ8gmTCGUEMoJOwiHCKfgXuogvCcSiQyiPdEH7sU0Yg5xOnExcQNxH7GZ2EZ8TOwhkUjGJGdSICmOxCUVkEpIa0l7SMdIV0gdpF4NTQ0LDXeNCI10DbHGPI1yjd0aRzWuaDzT6CPrkG3J/uQ4Mp88jbyUvI3cSL5E7iD3UXQp9pRAShIlhzKXUkGppZyi3KO81dTUtNL00xytKdKco1mhuV/zrOZDzY9UPaoTlU0dR5VTl1B3Upupt6lvaTSaHS2Elk4roC2hVdNO0B7QerXoWq5aHC2+1mytSq06rStar7TJ2rbaLO0J2kXa5doHtS9pd+mQdex02DpcnVk6lTqHdW7q9OjSdYfrxunm6y7W3a17Tve5HknPTi9cj69XrLdV74TeYzpGt6az6Tz6fPo2+il6hz5R316fo5+jX6a/V79Vv9tAz8DTIMVgqkGlwRGDdgbGsGNwGHmMpYwDjBuMT4ZmhixDgeEiw1rDK4YfjIYYhRgJjEqN9hldN/pkzDQON841Xm5cb3zfBDdxMhltMsVko8kpk64h+kMChvCGlA45MOSOKWrqZJpgOt10q+lF0x4zc7NIM4nZWrMTZl3mDPMQ8xzzVeZHzTst6BZBFiKLVRbHLF4wDZgsZh6zgnmS2W1pahllKbfcYtlq2Wdlb5VsNc9qn9V9a4q1r3WW9SrrFutuGwubUTYzbGps7tiSbX1thbZrbM/YfrCzt0u1W2BXb/fc3sieY19kX2N/z4HmEOww2aHK4Zoj0dHXMddxg+NlJ9TJy0noVOl0yRl19nYWOW9wbhtKGOo3VDy0auhNF6oLy6XQpcbloSvDNcZ1nmu966thNsPShy0fdmbYVzcvtzy3bW53h+sNHzl83vDG4W/cndx57pXu1zxoHhEesz0aPF57OnsKPDd63vKie43yWuDV4vXF28db6l3r3elj45Phs97npq++b7zvYt+zfgS/UL/Zfk1+H/29/Qv8D/j/FeASkBuwO+D5CPsRghHbRjwOtArkBm4JbA9iBmUEbQ5qD7YM5gZXBT8KsQ7hh+wIecZyZOWw9rBehbqFSkMPhX5g+7NnspvDsLDIsNKw1nC98OTwdeEPIqwisiNqIrojvSKnRzZHEaKio5ZH3eSYcXicak73SJ+RM0eejKZGJ0avi34U4xQjjWkchY4aOWrlqHuxtrHi2Po4EMeJWxl3P94+fnL8b6OJo+NHV45+mjA8YUbCmUR64sTE3Ynvk0KTlibdTXZIlie3pGinjEupTvmQGpa6IrV9zLAxM8dcSDNJE6U1pJPSU9J3pPeMDR+7emzHOK9xJeNujLcfP3X8uQkmE/ImHJmoPZE78WAGISM1Y3fGZ24ct4rbk8nJXJ/ZzWPz1vBe8kP4q/idgkDBCsGzrMCsFVnPswOzV2Z3CoOF5cIuEVu0TvQ6JypnU86H3Ljcnbn9eal5+/I18jPyD4v1xLnik5PMJ02d1CZxlpRI2if7T149uVsaLd0hQ2TjZQ0F+vBQf1HuIP9J/rAwqLCysHdKypSDU3WniqdenOY0bdG0Z0URRdun49N501tmWM6YO+PhTNbMLbOQWZmzWmZbzy6e3TEncs6uuZS5uXN/n+c2b8W8d/NT5zcWmxXPKX78U+RPNSVaJdKSmwsCFmxaiC8ULWxd5LFo7aKvpfzS82VuZeVlnxfzFp//efjPFT/3L8la0rrUe+nGZcRl4mU3lgcv37VCd0XRiscrR62sW8VcVbrq3eqJq8+Ve5ZvWkNZI1/TXhFT0bDWZu2ytZ/XCdddrwyt3LfedP2i9R828Ddc2RiysXaT2aayTZ82izbf2hK5pa7Krqp8K3Fr4dan21K2ndnuu716h8mOsh1fdop3tu9K2HWy2qe6erfp7qU1aI28pnPPuD2X94btbah1qd2yj7GvbD/YL9//4peMX24ciD7QctD3YO2vtr+uP0Q/VFqH1E2r664X1rc3pDW0HR55uKUxoPHQb66/7WyybKo8YnBk6VHK0eKj/ceKjvU0S5q7jmcff9wyseXuiTEnrp0cfbL1VPSps6cjTp84wzpz7Gzg2aZz/ucOn/c9X3/B+0LdRa+Lh373+v1Qq3dr3SWfSw2X/S43to1oO3ol+Mrxq2FXT1/jXLtwPfZ6243kG7dujrvZfot/6/ntvNuv7xTe6bs75x7hXul9nfvlD0wfVP3h+Me+du/2Iw/DHl58lPjo7mPe45dPZE8+dxQ/pT0tf2bxrPq5+/OmzojOyy/Gvuh4KXnZ11Xyp+6f6185vPr1r5C/LnaP6e54LX3d/2bxW+O3O995vmvpie958D7/fd+H0l7j3l0ffT+e+ZT66VnflM+kzxVfHL80fo3+eq8/v79fwpVylUcBDDY0KwuANzsBoMGzAx3e2yhjVXdBpSCq+6sSgf+EVfdFpXgDUAs7xTGe3QzAftjs5iivKkBxhE8KAaiHx2BTiyzLw13FRYU3IUJvf/9bMwBIjQB8kfb3923o7/+yDQZ7G4Dmyao7qEKI8M6wOUSBrhvx54AfRHU//S7HH3ugiMAT/Nj/C7kJj1l3vOiDAAAAimVYSWZNTQAqAAAACAAEARoABQAAAAEAAAA+ARsABQAAAAEAAABGASgAAwAAAAEAAgAAh2kABAAAAAEAAABOAAAAAAAAAJAAAAABAAAAkAAAAAEAA5KGAAcAAAASAAAAeKACAAQAAAABAAABSKADAAQAAAABAAAALAAAAABBU0NJSQAAAFNjcmVlbnNob3Rkw1RiAAAACXBIWXMAABYlAAAWJQFJUiTwAAAB1WlUWHRYTUw6Y29tLmFkb2JlLnhtcAAAAAAAPHg6eG1wbWV0YSB4bWxuczp4PSJhZG9iZTpuczptZXRhLyIgeDp4bXB0az0iWE1QIENvcmUgNi4wLjAiPgogICA8cmRmOlJERiB4bWxuczpyZGY9Imh0dHA6Ly93d3cudzMub3JnLzE5OTkvMDIvMjItcmRmLXN5bnRheC1ucyMiPgogICAgICA8cmRmOkRlc2NyaXB0aW9uIHJkZjphYm91dD0iIgogICAgICAgICAgICB4bWxuczpleGlmPSJodHRwOi8vbnMuYWRvYmUuY29tL2V4aWYvMS4wLyI+CiAgICAgICAgIDxleGlmOlBpeGVsWURpbWVuc2lvbj40NDwvZXhpZjpQaXhlbFlEaW1lbnNpb24+CiAgICAgICAgIDxleGlmOlBpeGVsWERpbWVuc2lvbj4zMjg8L2V4aWY6UGl4ZWxYRGltZW5zaW9uPgogICAgICAgICA8ZXhpZjpVc2VyQ29tbWVudD5TY3JlZW5zaG90PC9leGlmOlVzZXJDb21tZW50PgogICAgICA8L3JkZjpEZXNjcmlwdGlvbj4KICAgPC9yZGY6UkRGPgo8L3g6eG1wbWV0YT4KSqdiYwAAABxpRE9UAAAAAgAAAAAAAAAWAAAAKAAAABYAAAAWAAAN2x+9tagAAA2nSURBVHgB7JsLXI/XH8c/mVvZdMGfMKu/mNj295+J7pHLUirJJRqzDBt/DNsiJZeSLmO5NKIwUi655joj122GXWxj7C+XYTMh1Wwu7XzPr/Ps+V3rV7+8NM8Xz+859/N8n3Pe53u+52HW0cmlBIooGlA0oGhA0YCWBswUQGrpRIlQNKBoQNEA14ACSGUgKBpQNKBoQI8GFEDqUYwSrWhA0YCiAaMBubxbMczMwP7Rhf/lYX5fVjzTNxUjUauDl6NI+sv+UJ7SOM12fD+uScUVUTSgaEDRQJVrwHhAehfrhZc+qKnFs0eqDCT9VimArPJRoTSgaEDRANeA0YBM76qyINWgxy2/UvDpsfzU8rOmKwrJ3goglaGraEDRwCPSgPGA7PK3BakGvUcEyd6rFQvyEY0NpRlFA0+8BowGZBoDJGOhtM3WhGSTwHBYvdxfr2ILz+zE9Q0RzILktRhtSfpn1NJbt5KgaEDRgKIBU2rAaEAu8yo9pKFelG6nxS9Br+mg2ajv2NNgHy+n9cG9axcrBMmANQogDSq3nIk2NjZ4+PABbt26Xc4SSjZFA0+eBowHpGcRdyCSAajLkmw2OK5MQBae3oFfN0zl1qOxlmRApmkA6ezcGTVrPlXmG7906TLy8i6Uma86ZfD19cG0qKkoKSlB+OQI7NuXW526X+V9bdrUFi1b/hu//34XX355vMrbM3UD+/d/AvO6dbFx02bExSWYtPqIKeHw9/djuvkdXl26m7Tux7EyowG51KNItS1mhNQFyeahZQOSFHExxQf38381GpKBWaYB5BefHy7X+/j221MIGz6yXHkfl0x12eTo8PJ/eXeOnziJu3fvqnVtfvJcdOrkxOP2froPkydPVUt/0gOJiXPg4e7GLOyH6OzsXu3UceRwLlv8a2LXrt2IjJpu0v7HzJqB7t29ce/ePbi6eZm07sexMqMBmequAiTBkeimCclmDJCWbQ1vsUkRBd+sw29b4qRtenktyT5ZtU2ix/IC8quvvsaIkW+bpM1HVYmnhzsSEphumbz7bjhyDxxUa/rFF1/AvLlJzIJ8iLdHj8WPP55VS3/SAwog9Y8ABZD6dcNTUt1oi83ZyOGoCcnmobGwbOdTRi0smfm/LizogQcFt2T1EXVVdYtfDk5Ze33WmhaQtA2ZPTuet/tPuZQFyH/Kc1bVcyiA1K9ZBZD6dcNTljBAcozJoCWHZE3L+qht00RVi1kJrDoEwbrDQJ213jq2Ajd2JpeCVkDXMCSD1v1zAEl+LvJx/vnnnzr1oxlJ26bnnmuBX375FYWFhZrJUtiUgLS1tUVBQQGKitjCaKSQL6+4uLjcB0HkGrC1bYILFy7y7a2RzZksuykAWaNGDdjb27H3e4m933tG9Y30dudOIft3R6uchbk5GjdpjPPn87TSRISuLXbt2rVhZ/cc96eXd7zpKlNeQIp3aaifor+P86/RW+zFrqVbbHoqPZAU8fRbq359OEzaA7OntMFWcv8P5CV3x0M2+VRb9rIh2Xe9dj0VUbDYYhtjQS5ZvAgvvfQih1q//iFazYYMHIBx48bwww9nFw8pfcb0aejRoxsDzR2EhY1AMvMBEghoEpEUM4d3QkIScnJ2SGXkN+TzmfDOODRo0ECKJr/iuXM/Ydz4idJEeuWVDlgwfx7TJbk+VAsNHcTQvwcPHkg+Iyenjkj+8ANeV8ig17QmG7U3KGQgWrVyAE0Sktu3b+O7735AQmISfv75Co8TF2/vroiZNZ0HA/sEY8aMaLR1dGRlVf7i+/fvY/PmrZgTnyiKqP1GRUagq3cX0OQnof7SAvDB3A/16kStAhMHKgPIkSOGIyRkACwsLKRe0fv97LPPER4eIcWJm6NHDvB3lZy8AK2fb41uTJdC5wTJqKhoHD5yFHSwNmniO6hXrx4vSv5RWlyHvzmKvxtRH/3KAbk/9yDC358ES0tLKUt+fj7fNeVquF5EBk9PD0yZ/B6sra1FFF/k4uLiQe9anw+S+j0nLgYdO74iPQO9S1pgV65chY9XZUj1VZcb4wHpItti01OWA5JNAibCxilUp07yDy1E/r40qoYNFHl9FCiNK/2lSd93g2rC8sRKXCoCyIzVK+Dg4IDffruBXr7+Wq0PDxuGEWyCkDh1cpXSP0iKh5ubKwgUtHrLJ4+Uid1ERkZj1+498ijQYI2fEysBTy2RBeik9c0Ro7gf0dXFGXPn6oYQlRN9kluYQ4a+gdOnz0jVdu3ixU4+Y6Sw5g1ZhAGBwWqT0s+vFwhyJJcuX8azzZtrFuNhXQdC69dlokWLZ6X8NKEE3Cly7boNSExUwVzKVMU3FQXk8vSlaNvWUW/vyJoaMHCwWroYh1evXmWLpq1aGgVIH2lpy9nCOkwrjSLoMy0aizS2hAhAGnoXBNihr4fhzJkfRTH+26bN86DnEIu3WiILiDo1D2locdu+Y6u0yGmWo/D69dmIZ4ZAdRKjAfmRs4a1R0/LWEZwUwGu9OCmhhlsXIJw82g2alnboNWEXUAN7c9qHv5RhPPzuqGEgYOQWBYkg7PrmES/YmAaY0FWFpCi42RNZazJZJApwIg3wxAUFMiTyErr3qOXyAZHxzZIT0vlg5UGdGbWOmRnb+SfoAT1CZROoi9evITgfgN5PisrK7i5umDq1Mm8nlmzZuPQ4SPcgqT6SfQBkg5vUpek8Hpowq3JXItNGzejabOmCA4O4uWo/I0bN9DbP0ialHJAUvqp777HRx8twSn2BYBPr1cxccJ4fqpKk/1VHz/cvMn8zkzkQD/BTtsnTnqffz7i3LkTYmJn8slGlq+nl7fR21TeQAUvFQFkhw4vI2XRfN7i9evXkZQ0DydOnkT3bt0wZEgoGjf+F08b87/x+OKLY1LPxDikiCtXrmJWzGxcZovM6LdHoWfPHlI+0l1q6jJks/dBCwpZasLCo13E0aOfSXkFIEXE1m05WMcWmjp16qB/v2BuAVIaLa6+fgGSu+aZZ57Btq2bYG5elxfds2cvW6DW80W9X3Bf0HsWognI8PB3QWOS5NixL5G6NA3Xrl1DYIA/QkMHcYuyOn4VYDQgUzoX8hVeDWSkFQ1IWrb3RIuQebiwchSKTn+Opv0jYdU+iHJqyfW98bh9OEtVB0tVq5sHSuNYWr+NpgUkDebvfzit1SeKIKAQYISYApC6VtFlSxeD4EQirDy6pwlHE4+EPtegzzbkQlv+9u3/w6P69h3AV3cKyAGo6xRbni63IFNSFkifB70fPkXr+8ikxHi4u7vy9iKmRoEmEIkckOQ/1HQ/DHt9CN56a6RWObKMvbw8ebyLq6cEXIp4oV1bXoYsmRkzY0EW1qOSigDSx6cn/Hv78WeYEhEluT2oz61bt8Kqj5fz7m/Zso1DkAfYRQCSLPMePX05jETahg1ZkjU+f/5CtS1qE+aH3LI5m2fVHFNyQNLWdsHCFFEl/50eHQXqL0kKW8jS01fwe/kOaPuOnYiOnsnjxWXs2NEIHTyIBzUBSWmObdrgCntPM9n7ksuY0W/xRYLi6KuJ6vRtqfGA7MQOBzgMVZaiBEZ6egFJZj22mpCFuo1bo/jKKZxf8BrqNLKFwzvbKZeWPCjOZ1YkO/mmbQLVwXLog6SpAanVGVkEWS9yX6IpANnzVV/JghJNkYVBg4iELEGyCEl279oOKytL7ljvP0A1MHlC6YX8UV5eKl9nLvM1iYMbOQCNAaRo76ef/g/yTWoKwUr4zMgqERNBDsjk5IVYtTpDrai1tRV27czhcTQZaVKSjB8/lvk6B/B7mpCxsXGVshSffvppXpeuC1lg5T1oqgggdbUpj9u/bw93rXz99TfMJaJ615QuAHng4CFMYha0XGbOmCZZkR6e3lrfswoQHjp0GBMmvicVFfEEXX0fc4s85BsdO24CLzuf+a87Mf807R5owdIl4jk0Aakrr4gjy3TvJzt5kGBN0K4uYjQgFzmRBckej8NQNyTrt3OC/TDVJCBF5KW9gaKzJ2HoE6Bftkej4NgWbp0agmT/TXVMolsxMOmw4+bNmzrrpEOV14YMk9IqC0h9g4qc3nQ6SDJo8FB2+HKOb3MFjHbv+YRtmadJ/SjrpiKAlMPP0AfGNNBpwMv9aXJAElgJsJoi9E3wJIiS0Klq5ppV/FkpLA4ejh8/wV0QYqGgtLKEDqgWLUw2mE1unRvKWBlA2tvbcauYPtS3aWDD3AQWfMsqtsP6AElbUtpCyyUycgp6+/ly94h8oRZ5DuTuBZ0W6wPk2bPnMDh0qMiu9puzbRMaNWoE2kH5+qm2xjk5m9GoYUP+lURv/z5q+UUgI2MlHFq21PmhOI0h2tF4sO9w2zFfbH12QGvOfJMWFub8nup4IgBJD6oXkgycDmPTUa+F6n9yUN6iiyeQlxKGus3s0HLMRorSknu3ryDvwwDmlX5gEJKmBuSj9EESjMkS0BT5wYgApL29HbIyV/Os8m2QZlld4YoA0t5e1l7KYqQvX6mraqzNWs3AZsetsS5dVT4yOSDpAEfXdlgXIKkBmlCxMTPRsOHfJ/SiYZq85LMjGJcldDJPJ/iGpCoBSXCg/6FEJ7iGRC8gGRwJknKpLCA/3bdf58k5tZHGfNvkxqBPkNzcvXizhw7uZ77CWjD0v8cS4mfzg0PNxZ5gu2L5Mp3vkVdeeqlugPwLAAD//9fDHzYAAAtpSURBVO1aB1hVRxb+IUrUBEskoijIy6qoa0UsUewbNUrERlEMGrN2Y4ldY42KCggiqBELYoz62RuISgLYNTEaxbaoWEGDoGILFjJn3pvrfQ9IfCzwWHfme9x7Zs6cKf+d+99zZjBr2KhpJoxIIQ0fwcxMa8DvTDZjgpDfr1obVQevydLildDeeHo5HnZfLoRl1RZZ9FSQtHUs0k9H87aoTWh/SttU5LG9WLa2xhYeP3aIm2zdth0+PvPfyPyHtatRpUoVpKTcQ8dOnbPYDBrYH/369eXljRo3U/QL/OfD2bkZnj17hhYt2yrlQmjTuhXmzp3Ns728+iAhIQHm5uY4cjiOYxsVtRdTps4Q1f/23rJFc/j6zuX1xo6dgNi4A3o2ar13n364cOGiXn+7d0dixsxZejYis29vBEqVKoVr167Dzb0nL3Zx6YipUyZz2bVLDyQlJYnqyl3g/f3aHxAUFKKUC0GjsYdbj+5wcnJE5cqV+bxJ9/z5c3RyccX9+w8om2MqUqQIatSonqP+1atXiI8/l6NerfDzm4cWzZ1BNk0+bq5W5SgHLPBFs2ZNuZ6eM/V18tdTSE1N5X8+c2ZxjE+f/g39BwxW2hG4hIauQOjylUo5CVOmTMJnLp3w8uVLfNw06zsTFxuNYsWK4eDBQ/h69DjF9vChWBAeFy5ehLd3P6VcLezYvgXly1vrreXIiB0oW7YskpKT4eraXV1dkdeEr4KDQzX+XJo5t1LK90ZFoHTpUjz/4MED/PzLSVy69B/cu3cPDx48hO98H64LDlmC8PDvFbvCLpgZS5DBTlqC5ITIZsfvRGRMIPkfQ0JQsuprchAAPLpyFInLBqOEpjo+GrhOFOvd/7h3FdeCewCZmbyt7EjSc4fpCDI8fCWqOzjgyZMnaNX6E72xU8Znzrdo27YNL/9vCZIaEYsuMTER7h5evF31hUi0UqWK/MVLTLymqNQE+KYEScb790WiZMmSfGH3/ryv0p5aOHrkAO8vMjIK06bP5Kq8IEh1H/Si+c6fi7p16/DigIAgrFu/QV0lX+XcEGRMzH6UKF4cjx8/Rus27fTGR8+JSIvuBUmQ6enpaPuvDnpjEZlDB2NQtGhRnDjxM4YOG8GLlyxehAYNHLOQn7Che/T+KFhavq9Xp1y5cti1cyuv9gsjxsFDvlKbwNGxPpYuCeZl/xcESTMlMuTkqJPJ23vPvhqqj9rIgTC8ZL5gX9VpzsCrl9AMCsV7lZ0Mq/D8zQ1D8eTcEda46IME/uP9ee40HUGSl0RkkMkIvMOnLkhLu6/MgRb/j9FRKFGiBC/LC4JcwhZVA7a4KI0dNxGxsXFcFhcfn1lo26Y1z3p4euHq1UQuN2/eDP5+Wq84bPUaLF68VJjwu5pAhQdJitBlSzgp0fyGDB0OWuzqJOZPZdOnf4uIyD1cnVuCnDhxHMpbW+Ms87bIg1In20qVsHmzlhQ3bNgI/wWBanW+yrkhyGNHD7L1aZat19a5swu+mTyRj7kgCZI6JG+dvHZ1GjlyOHr19OBF5LUK7NUR0Nq167AwSEtqwtbbuzeGDdV6v+TZCw+yZcsWioe4cmUYln4XKkz4PTDAH02bNuHyW0+Qixroh9hqkvyovx/K1M7qWREyKYdWI2l7AGc9SwdH2PfTfyE4euzyLDked3bN4GSY8ftNZP7xjC88QZI9d5mOIDt+2oERwxQ+1OvXb7BQaRAnyYoVbbDA3xcajT3X0SUvCLJevbr4bmkIn/+LFy8Qwohu27YdPJTp6ekBd3fmbbN0+3YSunTVypSn8Wzdov1QpaWlYeq0mdxToJCRUk4E2aRJYywM9Of9ZWQ8Zy/XIuyO2IMPypSBl1dPdOvWhdunpz/iYS+FkpRyS5Bhq5ajZs0avA0Ku5avWMW3ISwtLdm8g/l2Bim7dnPDrVu3eb2CuAiCpA/FyFFjcuyS9MePn+Ch+O7d2/GhlRWvO8dnHiIiImFh8S48PdzQv/+X2jXMtAVNkDRGwnXz5q087Pb0dENvr158nPSMO7t241sAVGBlVRbbt23mniXliVjXr98IWntuPbrx7SMe1TGdmiAtLIriQNxPfI5Pnj7F+PGTcOzYcVSoUAGjR4/k2xXUHqW3niCDHLOG2ESSxWzsUGviTi0KBtfMVy9w3qcdXtxPZSAypbkZqoxYi+IVahrU1M+mxAQiNSac24hwu5cJCZIWAi0g2qcRiRagWDS0OCjMopQXBEntqEmZ8oaJFu+wr0bi5Mlf9VSxMdEoXvz1x4TG2bgJ8+BZyokgSUckOGH8WBKzTfRS9XDzQHLyHUWfW4JUfwBEYxkZGYxYLEQ2C6EoinwUBEG+SRe0F0170l980QeDBw1QTNTrgj5M9Ef7ggVJkHfu3IW1dTllTGqBxpddlODk1AAhwQuVNa22IVm0qSZIKl/Goo96ui0Ryqvn//DhQ751Q+VvP0HWf6QNeSnsJbJjie6avjNh5eSqLTC4ppzYhFvr2aa/zobqW9Zxhn3vYIOa+tmUmCCk/hSmsjNDr92vX3r92sblxOb4li3bMHee7xsb0wHF6rAV7OtYXm8RHTlyFGfOnMWAAf/mbakJUrxwOR3SqEMUdagsBuXu1h1DhgxSwncqpwWYlJTM9o+GZ+tdEflMYiGsvb29aEYhbTpMoEMFSrTXeIltpquTB/N6PD3c+Rxp64ASEVdCwmWOFR3qqJOaxF0+64q7d++q1VwWISh5ivSSiKTR2COQea0UaosPDekIq3XrNmDJ0mWULdBEBwr0TN4kte/QSdlqIa9+2LDBigdG9nRgMfmbaZgzeyYniVOnTmPAwCFK02IdUlhK4ak6UVhO4fnfHdLEHTiIMWPGK6Zif5H2iePj4zF8+DC9j87Tp88QELiQRyOKkUro0qUzvh41gh8AiWJ6/gGBQZwE27dvp+dBijqEW3N2uCXWDJUnXL7MvMjxzLHYxKtlF/IL+8J4N/qQZmH9dMZzxHRaYiSys7Aqh3rTo1iB9mXSmyh7kc/N74iMu0lk8truHXNUG7MZ71pp9KqrM78TQf4YxglY9OcVofXQ1PVMIdMiqF27Fn+pz507zwkkv8dhY1MBdnZ27IVMw8WLl96oOzrlpIMXOlh69Ih93IxIYo7UH20p5Hei01H6AJ1lHxryxv9XE50OazQatid8Vc/TNuV87OxsYWtryz6mt6A+0PurMWk09rCxscGNGzeMev70HGmbhD6kxq65vxqPKXRGE2RgPUaQRI6csdidyfa9xsPaWbuvYTiJtN+ikLiKfd3IhtuxGjq5TMNPYOues/dGBHmPCJJM+IV5PJGFgyAN5ynzEgGJwNuHgPEEWTddITgiyaKly8Bx1l6YFXm9b6SG6bxfNzy9eUUhODVJmhd5Bw4TdsKitI3aRJE5QUaHaftjpWTbe48kSAUgKUgEJAL5ioDRBBlQR+tBCi/ww6adUMVb+0+ghiNNPbMPV0PH6AiV0anOC1ST5AeNOjAvcq6hKc8nR8xG2uFNzI4Zan/4PEoSZLZgyUKJgEQgzxEwmiAX1NaF2HpkpyMwulE5S5zTVLKWULMnSaUuE7jMG9C1pWtTkKS3JEiOr7xIBCQC+Y+A8QRZSxViEwEKAtO5eArZkUqno2mQnBck6b1XepCEp0wSAYlA/iNgNEH6M4IkrlOIUSE+KiJGZD/dH69mIGv1ufck++wrkf+oyB4kAhIBiQBDwGiC9PunOMUmaxUZCjmfSbLvfkmQcuVKBCQCBYOA0QRZMMOSvUgEJAISAdMjIAnS9M9AjkAiIBEopAhIgiykD0YOSyIgETA9ApIgTf8M5AgkAhKBQoqAJMhC+mDksCQCEgHTIyAJ0vTPQI5AIiARKKQISIIspA9GDksiIBEwPQKSIE3/DOQIJAISgUKKwJ+R8BUCerV1NgAAAABJRU5ErkJggg==;" vertex="1" parent="1">
          <mxGeometry x="40" y="293" width="328" height="44" as="geometry" />
        </mxCell>
        <mxCell id="VVkOHHsC4mun2wqV-mM1-7" value="" style="shape=image;verticalLabelPosition=bottom;labelBackgroundColor=default;verticalAlign=top;aspect=fixed;imageAspect=0;image=data:image/png,iVBORw0KGgoAAAANSUhEUgAAAUgAAAAsCAYAAAAHBiHLAAAMaWlDQ1BJQ0MgUHJvZmlsZQAASImVVwdYU8kWnluSkJDQAqFICb0JIr1ICaFFEJAq2AhJIKHEmBBU7MqigmsXUaxYEUVXV0AWFbGXRbH3xYKKsi4WFEXlTQrouq9873zf3Plz5sx/yp3JnQFAu5crkeShOgDkiwukCZGhzDFp6UzSU0AAFGAI/IEulyeTsOLjYwCUgf7v8v4GQBT9VRcF1z/H/6vo8QUyHgDIOIgz+TJePsTNAODreRJpAQBEhd56SoFEgedArC+FAUK8SoGzVXiXAmeqcJPSJimBDfFlADSoXK40GwCte1DPLORlQx6tzxC7ifkiMQDaQyEO4gm5fIgVsQ/Nz5+kwBUQO0B7CcQwHuCb+R1n9t/4Mwf5udzsQazKSykaYSKZJI877f8szf+W/Dz5gA872KhCaVSCIn9Yw1u5k6IVmApxlzgzNk5Ra4h7RXxV3QFAKUJ5VLLKHjXlydiwfoABsRufGxYNsSnEEeK82Bi1PjNLFMGBGK4WdKqogJMEsRHECwWy8ES1zWbppAS1L7QuS8pmqfVnuVKlX4WvB/LcZJaa/41QwFHzY1pFwqRUiCkQ2xSKUmIh1oLYVZabGK22GVEkZMcO2EjlCYr4bSBOEIgjQ1X8WGGWNCJBbV+aLxvIF9ssFHFi1fhAgTApSlUf7CSPq4wf5oJdFohZyQM8AtmYmIFc+IKwcFXu2HOBODlRzdMrKQhNUM3FKZK8eLU9biXIi1TorSD2lBUmqufiKQVwcar48SxJQXySKk68KIc7Ml4VD74MxAA2CANMIIctE0wCOUDU2lXfBX+pRiIAF0hBNhAAF7VmYEaqckQMn4mgCPwJkQDIBueFKkcFoBDqvwxqVU8XkKUcLVTOyAVPIc4H0SAP/pYrZ4kHvaWAJ1Aj+od3Lmw8GG8ebIrxf68f0H7TsKAmRq2RD3hkag9YEsOJYcQoYgTRETfBg/AAPAY+Q2Bzx31xv4E8vtkTnhLaCI8I1wnthNsTRfOkP0Q5CrRD/gh1LTK/rwVuBzm98FA8ELJDZpyBmwAX3BP6YeHB0LMX1LLVcSuqwvyB+28ZfPc21HZkNzJKNiSHkB1+nKnlpOU1yKKo9ff1UcWaOVhv9uDIj/7Z31WfD/voHy2xhdhB7Ax2HDuHNWH1gIkdwxqwi9gRBR5cXU+Uq2vAW4IynlzII/qHv4E3q6ikzK3GrdPts2qsQDC1QLHx2JMk06SibGEBkwW/DgImR8xzHcp0d3N3B0DxrVH9fb1lKL8hCOP8N918HwACi/v7+5u+6aK3A3AwDW7/a9909h/hf7Q1AGc38uTSQpUOVzwU3zBtuNOMgTmwBg4wH3fgDQJACAgHI0EcSAJpYAKMXgjXuRRMATPAXFACysAysBqsA5vAVrAL7AUHQD1oAsfBaXABXAbXwV24ejrAS9AN3oM+BEFICA2hI8aIBWKLOCPuiC8ShIQjMUgCkoZkINmIGJEjM5D5SBmyAlmHbEGqkV+Qw8hx5BzShtxGHiKdyBvkE4qhVFQfNUPt0GGoL8pCo9EkdDyajU5Gi9BidAlagVahe9A69Dh6Ab2OtqMv0R4MYJoYA7PEXDBfjI3FYelYFibFZmGlWDlWhdVijfA9X8XasS7sI07E6TgTd4ErOApPxnn4ZHwWvhhfh+/C6/CT+FX8Id6NfyXQCKYEZ4I/gUMYQ8gmTCGUEMoJOwiHCKfgXuogvCcSiQyiPdEH7sU0Yg5xOnExcQNxH7GZ2EZ8TOwhkUjGJGdSICmOxCUVkEpIa0l7SMdIV0gdpF4NTQ0LDXeNCI10DbHGPI1yjd0aRzWuaDzT6CPrkG3J/uQ4Mp88jbyUvI3cSL5E7iD3UXQp9pRAShIlhzKXUkGppZyi3KO81dTUtNL00xytKdKco1mhuV/zrOZDzY9UPaoTlU0dR5VTl1B3Upupt6lvaTSaHS2Elk4roC2hVdNO0B7QerXoWq5aHC2+1mytSq06rStar7TJ2rbaLO0J2kXa5doHtS9pd+mQdex02DpcnVk6lTqHdW7q9OjSdYfrxunm6y7W3a17Tve5HknPTi9cj69XrLdV74TeYzpGt6az6Tz6fPo2+il6hz5R316fo5+jX6a/V79Vv9tAz8DTIMVgqkGlwRGDdgbGsGNwGHmMpYwDjBuMT4ZmhixDgeEiw1rDK4YfjIYYhRgJjEqN9hldN/pkzDQON841Xm5cb3zfBDdxMhltMsVko8kpk64h+kMChvCGlA45MOSOKWrqZJpgOt10q+lF0x4zc7NIM4nZWrMTZl3mDPMQ8xzzVeZHzTst6BZBFiKLVRbHLF4wDZgsZh6zgnmS2W1pahllKbfcYtlq2Wdlb5VsNc9qn9V9a4q1r3WW9SrrFutuGwubUTYzbGps7tiSbX1thbZrbM/YfrCzt0u1W2BXb/fc3sieY19kX2N/z4HmEOww2aHK4Zoj0dHXMddxg+NlJ9TJy0noVOl0yRl19nYWOW9wbhtKGOo3VDy0auhNF6oLy6XQpcbloSvDNcZ1nmu966thNsPShy0fdmbYVzcvtzy3bW53h+sNHzl83vDG4W/cndx57pXu1zxoHhEesz0aPF57OnsKPDd63vKie43yWuDV4vXF28db6l3r3elj45Phs97npq++b7zvYt+zfgS/UL/Zfk1+H/29/Qv8D/j/FeASkBuwO+D5CPsRghHbRjwOtArkBm4JbA9iBmUEbQ5qD7YM5gZXBT8KsQ7hh+wIecZyZOWw9rBehbqFSkMPhX5g+7NnspvDsLDIsNKw1nC98OTwdeEPIqwisiNqIrojvSKnRzZHEaKio5ZH3eSYcXicak73SJ+RM0eejKZGJ0avi34U4xQjjWkchY4aOWrlqHuxtrHi2Po4EMeJWxl3P94+fnL8b6OJo+NHV45+mjA8YUbCmUR64sTE3Ynvk0KTlibdTXZIlie3pGinjEupTvmQGpa6IrV9zLAxM8dcSDNJE6U1pJPSU9J3pPeMDR+7emzHOK9xJeNujLcfP3X8uQkmE/ImHJmoPZE78WAGISM1Y3fGZ24ct4rbk8nJXJ/ZzWPz1vBe8kP4q/idgkDBCsGzrMCsFVnPswOzV2Z3CoOF5cIuEVu0TvQ6JypnU86H3Ljcnbn9eal5+/I18jPyD4v1xLnik5PMJ02d1CZxlpRI2if7T149uVsaLd0hQ2TjZQ0F+vBQf1HuIP9J/rAwqLCysHdKypSDU3WniqdenOY0bdG0Z0URRdun49N501tmWM6YO+PhTNbMLbOQWZmzWmZbzy6e3TEncs6uuZS5uXN/n+c2b8W8d/NT5zcWmxXPKX78U+RPNSVaJdKSmwsCFmxaiC8ULWxd5LFo7aKvpfzS82VuZeVlnxfzFp//efjPFT/3L8la0rrUe+nGZcRl4mU3lgcv37VCd0XRiscrR62sW8VcVbrq3eqJq8+Ve5ZvWkNZI1/TXhFT0bDWZu2ytZ/XCdddrwyt3LfedP2i9R828Ddc2RiysXaT2aayTZ82izbf2hK5pa7Krqp8K3Fr4dan21K2ndnuu716h8mOsh1fdop3tu9K2HWy2qe6erfp7qU1aI28pnPPuD2X94btbah1qd2yj7GvbD/YL9//4peMX24ciD7QctD3YO2vtr+uP0Q/VFqH1E2r664X1rc3pDW0HR55uKUxoPHQb66/7WyybKo8YnBk6VHK0eKj/ceKjvU0S5q7jmcff9wyseXuiTEnrp0cfbL1VPSps6cjTp84wzpz7Gzg2aZz/ucOn/c9X3/B+0LdRa+Lh373+v1Qq3dr3SWfSw2X/S43to1oO3ol+Mrxq2FXT1/jXLtwPfZ6243kG7dujrvZfot/6/ntvNuv7xTe6bs75x7hXul9nfvlD0wfVP3h+Me+du/2Iw/DHl58lPjo7mPe45dPZE8+dxQ/pT0tf2bxrPq5+/OmzojOyy/Gvuh4KXnZ11Xyp+6f6185vPr1r5C/LnaP6e54LX3d/2bxW+O3O995vmvpie958D7/fd+H0l7j3l0ffT+e+ZT66VnflM+kzxVfHL80fo3+eq8/v79fwpVylUcBDDY0KwuANzsBoMGzAx3e2yhjVXdBpSCq+6sSgf+EVfdFpXgDUAs7xTGe3QzAftjs5iivKkBxhE8KAaiHx2BTiyzLw13FRYU3IUJvf/9bMwBIjQB8kfb3923o7/+yDQZ7G4Dmyao7qEKI8M6wOUSBrhvx54AfRHU//S7HH3ugiMAT/Nj/C7kJj1l3vOiDAAAAimVYSWZNTQAqAAAACAAEARoABQAAAAEAAAA+ARsABQAAAAEAAABGASgAAwAAAAEAAgAAh2kABAAAAAEAAABOAAAAAAAAAJAAAAABAAAAkAAAAAEAA5KGAAcAAAASAAAAeKACAAQAAAABAAABSKADAAQAAAABAAAALAAAAABBU0NJSQAAAFNjcmVlbnNob3Rkw1RiAAAACXBIWXMAABYlAAAWJQFJUiTwAAAB1WlUWHRYTUw6Y29tLmFkb2JlLnhtcAAAAAAAPHg6eG1wbWV0YSB4bWxuczp4PSJhZG9iZTpuczptZXRhLyIgeDp4bXB0az0iWE1QIENvcmUgNi4wLjAiPgogICA8cmRmOlJERiB4bWxuczpyZGY9Imh0dHA6Ly93d3cudzMub3JnLzE5OTkvMDIvMjItcmRmLXN5bnRheC1ucyMiPgogICAgICA8cmRmOkRlc2NyaXB0aW9uIHJkZjphYm91dD0iIgogICAgICAgICAgICB4bWxuczpleGlmPSJodHRwOi8vbnMuYWRvYmUuY29tL2V4aWYvMS4wLyI+CiAgICAgICAgIDxleGlmOlBpeGVsWURpbWVuc2lvbj40NDwvZXhpZjpQaXhlbFlEaW1lbnNpb24+CiAgICAgICAgIDxleGlmOlBpeGVsWERpbWVuc2lvbj4zMjg8L2V4aWY6UGl4ZWxYRGltZW5zaW9uPgogICAgICAgICA8ZXhpZjpVc2VyQ29tbWVudD5TY3JlZW5zaG90PC9leGlmOlVzZXJDb21tZW50PgogICAgICA8L3JkZjpEZXNjcmlwdGlvbj4KICAgPC9yZGY6UkRGPgo8L3g6eG1wbWV0YT4KSqdiYwAAABxpRE9UAAAAAgAAAAAAAAAWAAAAKAAAABYAAAAWAAAN2x+9tagAAA2nSURBVHgB7JsLXI/XH8c/mVvZdMGfMKu/mNj295+J7pHLUirJJRqzDBt/DNsiJZeSLmO5NKIwUi655joj122GXWxj7C+XYTMh1Wwu7XzPr/Ps+V3rV7+8NM8Xz+859/N8n3Pe53u+52HW0cmlBIooGlA0oGhA0YCWBswUQGrpRIlQNKBoQNEA14ACSGUgKBpQNKBoQI8GFEDqUYwSrWhA0YCiAaMBubxbMczMwP7Rhf/lYX5fVjzTNxUjUauDl6NI+sv+UJ7SOM12fD+uScUVUTSgaEDRQJVrwHhAehfrhZc+qKnFs0eqDCT9VimArPJRoTSgaEDRANeA0YBM76qyINWgxy2/UvDpsfzU8rOmKwrJ3goglaGraEDRwCPSgPGA7PK3BakGvUcEyd6rFQvyEY0NpRlFA0+8BowGZBoDJGOhtM3WhGSTwHBYvdxfr2ILz+zE9Q0RzILktRhtSfpn1NJbt5KgaEDRgKIBU2rAaEAu8yo9pKFelG6nxS9Br+mg2ajv2NNgHy+n9cG9axcrBMmANQogDSq3nIk2NjZ4+PABbt26Xc4SSjZFA0+eBowHpGcRdyCSAajLkmw2OK5MQBae3oFfN0zl1qOxlmRApmkA6ezcGTVrPlXmG7906TLy8i6Uma86ZfD19cG0qKkoKSlB+OQI7NuXW526X+V9bdrUFi1b/hu//34XX355vMrbM3UD+/d/AvO6dbFx02bExSWYtPqIKeHw9/djuvkdXl26m7Tux7EyowG51KNItS1mhNQFyeahZQOSFHExxQf38381GpKBWaYB5BefHy7X+/j221MIGz6yXHkfl0x12eTo8PJ/eXeOnziJu3fvqnVtfvJcdOrkxOP2froPkydPVUt/0gOJiXPg4e7GLOyH6OzsXu3UceRwLlv8a2LXrt2IjJpu0v7HzJqB7t29ce/ePbi6eZm07sexMqMBmequAiTBkeimCclmDJCWbQ1vsUkRBd+sw29b4qRtenktyT5ZtU2ix/IC8quvvsaIkW+bpM1HVYmnhzsSEphumbz7bjhyDxxUa/rFF1/AvLlJzIJ8iLdHj8WPP55VS3/SAwog9Y8ABZD6dcNTUt1oi83ZyOGoCcnmobGwbOdTRi0smfm/LizogQcFt2T1EXVVdYtfDk5Ze33WmhaQtA2ZPTuet/tPuZQFyH/Kc1bVcyiA1K9ZBZD6dcNTljBAcozJoCWHZE3L+qht00RVi1kJrDoEwbrDQJ213jq2Ajd2JpeCVkDXMCSD1v1zAEl+LvJx/vnnnzr1oxlJ26bnnmuBX375FYWFhZrJUtiUgLS1tUVBQQGKitjCaKSQL6+4uLjcB0HkGrC1bYILFy7y7a2RzZksuykAWaNGDdjb27H3e4m933tG9Y30dudOIft3R6uchbk5GjdpjPPn87TSRISuLXbt2rVhZ/cc96eXd7zpKlNeQIp3aaifor+P86/RW+zFrqVbbHoqPZAU8fRbq359OEzaA7OntMFWcv8P5CV3x0M2+VRb9rIh2Xe9dj0VUbDYYhtjQS5ZvAgvvfQih1q//iFazYYMHIBx48bwww9nFw8pfcb0aejRoxsDzR2EhY1AMvMBEghoEpEUM4d3QkIScnJ2SGXkN+TzmfDOODRo0ECKJr/iuXM/Ydz4idJEeuWVDlgwfx7TJbk+VAsNHcTQvwcPHkg+Iyenjkj+8ANeV8ig17QmG7U3KGQgWrVyAE0Sktu3b+O7735AQmISfv75Co8TF2/vroiZNZ0HA/sEY8aMaLR1dGRlVf7i+/fvY/PmrZgTnyiKqP1GRUagq3cX0OQnof7SAvDB3A/16kStAhMHKgPIkSOGIyRkACwsLKRe0fv97LPPER4eIcWJm6NHDvB3lZy8AK2fb41uTJdC5wTJqKhoHD5yFHSwNmniO6hXrx4vSv5RWlyHvzmKvxtRH/3KAbk/9yDC358ES0tLKUt+fj7fNeVquF5EBk9PD0yZ/B6sra1FFF/k4uLiQe9anw+S+j0nLgYdO74iPQO9S1pgV65chY9XZUj1VZcb4wHpItti01OWA5JNAibCxilUp07yDy1E/r40qoYNFHl9FCiNK/2lSd93g2rC8sRKXCoCyIzVK+Dg4IDffruBXr7+Wq0PDxuGEWyCkDh1cpXSP0iKh5ubKwgUtHrLJ4+Uid1ERkZj1+498ijQYI2fEysBTy2RBeik9c0Ro7gf0dXFGXPn6oYQlRN9kluYQ4a+gdOnz0jVdu3ixU4+Y6Sw5g1ZhAGBwWqT0s+vFwhyJJcuX8azzZtrFuNhXQdC69dlokWLZ6X8NKEE3Cly7boNSExUwVzKVMU3FQXk8vSlaNvWUW/vyJoaMHCwWroYh1evXmWLpq1aGgVIH2lpy9nCOkwrjSLoMy0aizS2hAhAGnoXBNihr4fhzJkfRTH+26bN86DnEIu3WiILiDo1D2locdu+Y6u0yGmWo/D69dmIZ4ZAdRKjAfmRs4a1R0/LWEZwUwGu9OCmhhlsXIJw82g2alnboNWEXUAN7c9qHv5RhPPzuqGEgYOQWBYkg7PrmES/YmAaY0FWFpCi42RNZazJZJApwIg3wxAUFMiTyErr3qOXyAZHxzZIT0vlg5UGdGbWOmRnb+SfoAT1CZROoi9evITgfgN5PisrK7i5umDq1Mm8nlmzZuPQ4SPcgqT6SfQBkg5vUpek8Hpowq3JXItNGzejabOmCA4O4uWo/I0bN9DbP0ialHJAUvqp777HRx8twSn2BYBPr1cxccJ4fqpKk/1VHz/cvMn8zkzkQD/BTtsnTnqffz7i3LkTYmJn8slGlq+nl7fR21TeQAUvFQFkhw4vI2XRfN7i9evXkZQ0DydOnkT3bt0wZEgoGjf+F08b87/x+OKLY1LPxDikiCtXrmJWzGxcZovM6LdHoWfPHlI+0l1q6jJks/dBCwpZasLCo13E0aOfSXkFIEXE1m05WMcWmjp16qB/v2BuAVIaLa6+fgGSu+aZZ57Btq2bYG5elxfds2cvW6DW80W9X3Bf0HsWognI8PB3QWOS5NixL5G6NA3Xrl1DYIA/QkMHcYuyOn4VYDQgUzoX8hVeDWSkFQ1IWrb3RIuQebiwchSKTn+Opv0jYdU+iHJqyfW98bh9OEtVB0tVq5sHSuNYWr+NpgUkDebvfzit1SeKIKAQYISYApC6VtFlSxeD4EQirDy6pwlHE4+EPtegzzbkQlv+9u3/w6P69h3AV3cKyAGo6xRbni63IFNSFkifB70fPkXr+8ikxHi4u7vy9iKmRoEmEIkckOQ/1HQ/DHt9CN56a6RWObKMvbw8ebyLq6cEXIp4oV1bXoYsmRkzY0EW1qOSigDSx6cn/Hv78WeYEhEluT2oz61bt8Kqj5fz7m/Zso1DkAfYRQCSLPMePX05jETahg1ZkjU+f/5CtS1qE+aH3LI5m2fVHFNyQNLWdsHCFFEl/50eHQXqL0kKW8jS01fwe/kOaPuOnYiOnsnjxWXs2NEIHTyIBzUBSWmObdrgCntPM9n7ksuY0W/xRYLi6KuJ6vRtqfGA7MQOBzgMVZaiBEZ6egFJZj22mpCFuo1bo/jKKZxf8BrqNLKFwzvbKZeWPCjOZ1YkO/mmbQLVwXLog6SpAanVGVkEWS9yX6IpANnzVV/JghJNkYVBg4iELEGyCEl279oOKytL7ljvP0A1MHlC6YX8UV5eKl9nLvM1iYMbOQCNAaRo76ef/g/yTWoKwUr4zMgqERNBDsjk5IVYtTpDrai1tRV27czhcTQZaVKSjB8/lvk6B/B7mpCxsXGVshSffvppXpeuC1lg5T1oqgggdbUpj9u/bw93rXz99TfMJaJ615QuAHng4CFMYha0XGbOmCZZkR6e3lrfswoQHjp0GBMmvicVFfEEXX0fc4s85BsdO24CLzuf+a87Mf807R5owdIl4jk0Aakrr4gjy3TvJzt5kGBN0K4uYjQgFzmRBckej8NQNyTrt3OC/TDVJCBF5KW9gaKzJ2HoE6Bftkej4NgWbp0agmT/TXVMolsxMOmw4+bNmzrrpEOV14YMk9IqC0h9g4qc3nQ6SDJo8FB2+HKOb3MFjHbv+YRtmadJ/SjrpiKAlMPP0AfGNNBpwMv9aXJAElgJsJoi9E3wJIiS0Klq5ppV/FkpLA4ejh8/wV0QYqGgtLKEDqgWLUw2mE1unRvKWBlA2tvbcauYPtS3aWDD3AQWfMsqtsP6AElbUtpCyyUycgp6+/ly94h8oRZ5DuTuBZ0W6wPk2bPnMDh0qMiu9puzbRMaNWoE2kH5+qm2xjk5m9GoYUP+lURv/z5q+UUgI2MlHFq21PmhOI0h2tF4sO9w2zFfbH12QGvOfJMWFub8nup4IgBJD6oXkgycDmPTUa+F6n9yUN6iiyeQlxKGus3s0HLMRorSknu3ryDvwwDmlX5gEJKmBuSj9EESjMkS0BT5wYgApL29HbIyV/Os8m2QZlld4YoA0t5e1l7KYqQvX6mraqzNWs3AZsetsS5dVT4yOSDpAEfXdlgXIKkBmlCxMTPRsOHfJ/SiYZq85LMjGJcldDJPJ/iGpCoBSXCg/6FEJ7iGRC8gGRwJknKpLCA/3bdf58k5tZHGfNvkxqBPkNzcvXizhw7uZ77CWjD0v8cS4mfzg0PNxZ5gu2L5Mp3vkVdeeqlugPwLAAD//9fDHzYAAAtpSURBVO1aB1hVRxb+IUrUBEskoijIy6qoa0UsUewbNUrERlEMGrN2Y4ldY42KCggiqBELYoz62RuISgLYNTEaxbaoWEGDoGILFjJn3pvrfQ9IfCzwWHfme9x7Zs6cKf+d+99zZjBr2KhpJoxIIQ0fwcxMa8DvTDZjgpDfr1obVQevydLildDeeHo5HnZfLoRl1RZZ9FSQtHUs0k9H87aoTWh/SttU5LG9WLa2xhYeP3aIm2zdth0+PvPfyPyHtatRpUoVpKTcQ8dOnbPYDBrYH/369eXljRo3U/QL/OfD2bkZnj17hhYt2yrlQmjTuhXmzp3Ns728+iAhIQHm5uY4cjiOYxsVtRdTps4Q1f/23rJFc/j6zuX1xo6dgNi4A3o2ar13n364cOGiXn+7d0dixsxZejYis29vBEqVKoVr167Dzb0nL3Zx6YipUyZz2bVLDyQlJYnqyl3g/f3aHxAUFKKUC0GjsYdbj+5wcnJE5cqV+bxJ9/z5c3RyccX9+w8om2MqUqQIatSonqP+1atXiI8/l6NerfDzm4cWzZ1BNk0+bq5W5SgHLPBFs2ZNuZ6eM/V18tdTSE1N5X8+c2ZxjE+f/g39BwxW2hG4hIauQOjylUo5CVOmTMJnLp3w8uVLfNw06zsTFxuNYsWK4eDBQ/h69DjF9vChWBAeFy5ehLd3P6VcLezYvgXly1vrreXIiB0oW7YskpKT4eraXV1dkdeEr4KDQzX+XJo5t1LK90ZFoHTpUjz/4MED/PzLSVy69B/cu3cPDx48hO98H64LDlmC8PDvFbvCLpgZS5DBTlqC5ITIZsfvRGRMIPkfQ0JQsuprchAAPLpyFInLBqOEpjo+GrhOFOvd/7h3FdeCewCZmbyt7EjSc4fpCDI8fCWqOzjgyZMnaNX6E72xU8Znzrdo27YNL/9vCZIaEYsuMTER7h5evF31hUi0UqWK/MVLTLymqNQE+KYEScb790WiZMmSfGH3/ryv0p5aOHrkAO8vMjIK06bP5Kq8IEh1H/Si+c6fi7p16/DigIAgrFu/QV0lX+XcEGRMzH6UKF4cjx8/Rus27fTGR8+JSIvuBUmQ6enpaPuvDnpjEZlDB2NQtGhRnDjxM4YOG8GLlyxehAYNHLOQn7Che/T+KFhavq9Xp1y5cti1cyuv9gsjxsFDvlKbwNGxPpYuCeZl/xcESTMlMuTkqJPJ23vPvhqqj9rIgTC8ZL5gX9VpzsCrl9AMCsV7lZ0Mq/D8zQ1D8eTcEda46IME/uP9ee40HUGSl0RkkMkIvMOnLkhLu6/MgRb/j9FRKFGiBC/LC4JcwhZVA7a4KI0dNxGxsXFcFhcfn1lo26Y1z3p4euHq1UQuN2/eDP5+Wq84bPUaLF68VJjwu5pAhQdJitBlSzgp0fyGDB0OWuzqJOZPZdOnf4uIyD1cnVuCnDhxHMpbW+Ms87bIg1In20qVsHmzlhQ3bNgI/wWBanW+yrkhyGNHD7L1aZat19a5swu+mTyRj7kgCZI6JG+dvHZ1GjlyOHr19OBF5LUK7NUR0Nq167AwSEtqwtbbuzeGDdV6v+TZCw+yZcsWioe4cmUYln4XKkz4PTDAH02bNuHyW0+Qixroh9hqkvyovx/K1M7qWREyKYdWI2l7AGc9SwdH2PfTfyE4euzyLDked3bN4GSY8ftNZP7xjC88QZI9d5mOIDt+2oERwxQ+1OvXb7BQaRAnyYoVbbDA3xcajT3X0SUvCLJevbr4bmkIn/+LFy8Qwohu27YdPJTp6ekBd3fmbbN0+3YSunTVypSn8Wzdov1QpaWlYeq0mdxToJCRUk4E2aRJYywM9Of9ZWQ8Zy/XIuyO2IMPypSBl1dPdOvWhdunpz/iYS+FkpRyS5Bhq5ajZs0avA0Ku5avWMW3ISwtLdm8g/l2Bim7dnPDrVu3eb2CuAiCpA/FyFFjcuyS9MePn+Ch+O7d2/GhlRWvO8dnHiIiImFh8S48PdzQv/+X2jXMtAVNkDRGwnXz5q087Pb0dENvr158nPSMO7t241sAVGBlVRbbt23mniXliVjXr98IWntuPbrx7SMe1TGdmiAtLIriQNxPfI5Pnj7F+PGTcOzYcVSoUAGjR4/k2xXUHqW3niCDHLOG2ESSxWzsUGviTi0KBtfMVy9w3qcdXtxPZSAypbkZqoxYi+IVahrU1M+mxAQiNSac24hwu5cJCZIWAi0g2qcRiRagWDS0OCjMopQXBEntqEmZ8oaJFu+wr0bi5Mlf9VSxMdEoXvz1x4TG2bgJ8+BZyokgSUckOGH8WBKzTfRS9XDzQHLyHUWfW4JUfwBEYxkZGYxYLEQ2C6EoinwUBEG+SRe0F0170l980QeDBw1QTNTrgj5M9Ef7ggVJkHfu3IW1dTllTGqBxpddlODk1AAhwQuVNa22IVm0qSZIKl/Goo96ui0Ryqvn//DhQ751Q+VvP0HWf6QNeSnsJbJjie6avjNh5eSqLTC4ppzYhFvr2aa/zobqW9Zxhn3vYIOa+tmUmCCk/hSmsjNDr92vX3r92sblxOb4li3bMHee7xsb0wHF6rAV7OtYXm8RHTlyFGfOnMWAAf/mbakJUrxwOR3SqEMUdagsBuXu1h1DhgxSwncqpwWYlJTM9o+GZ+tdEflMYiGsvb29aEYhbTpMoEMFSrTXeIltpquTB/N6PD3c+Rxp64ASEVdCwmWOFR3qqJOaxF0+64q7d++q1VwWISh5ivSSiKTR2COQea0UaosPDekIq3XrNmDJ0mWULdBEBwr0TN4kte/QSdlqIa9+2LDBigdG9nRgMfmbaZgzeyYniVOnTmPAwCFK02IdUlhK4ak6UVhO4fnfHdLEHTiIMWPGK6Zif5H2iePj4zF8+DC9j87Tp88QELiQRyOKkUro0qUzvh41gh8AiWJ6/gGBQZwE27dvp+dBijqEW3N2uCXWDJUnXL7MvMjxzLHYxKtlF/IL+8J4N/qQZmH9dMZzxHRaYiSys7Aqh3rTo1iB9mXSmyh7kc/N74iMu0lk8truHXNUG7MZ71pp9KqrM78TQf4YxglY9OcVofXQ1PVMIdMiqF27Fn+pz507zwkkv8dhY1MBdnZ27IVMw8WLl96oOzrlpIMXOlh69Ih93IxIYo7UH20p5Hei01H6AJ1lHxryxv9XE50OazQatid8Vc/TNuV87OxsYWtryz6mt6A+0PurMWk09rCxscGNGzeMev70HGmbhD6kxq65vxqPKXRGE2RgPUaQRI6csdidyfa9xsPaWbuvYTiJtN+ikLiKfd3IhtuxGjq5TMNPYOues/dGBHmPCJJM+IV5PJGFgyAN5ynzEgGJwNuHgPEEWTddITgiyaKly8Bx1l6YFXm9b6SG6bxfNzy9eUUhODVJmhd5Bw4TdsKitI3aRJE5QUaHaftjpWTbe48kSAUgKUgEJAL5ioDRBBlQR+tBCi/ww6adUMVb+0+ghiNNPbMPV0PH6AiV0anOC1ST5AeNOjAvcq6hKc8nR8xG2uFNzI4Zan/4PEoSZLZgyUKJgEQgzxEwmiAX1NaF2HpkpyMwulE5S5zTVLKWULMnSaUuE7jMG9C1pWtTkKS3JEiOr7xIBCQC+Y+A8QRZSxViEwEKAtO5eArZkUqno2mQnBck6b1XepCEp0wSAYlA/iNgNEH6M4IkrlOIUSE+KiJGZD/dH69mIGv1ufck++wrkf+oyB4kAhIBiQBDwGiC9PunOMUmaxUZCjmfSbLvfkmQcuVKBCQCBYOA0QRZMMOSvUgEJAISAdMjIAnS9M9AjkAiIBEopAhIgiykD0YOSyIgETA9ApIgTf8M5AgkAhKBQoqAJMhC+mDksCQCEgHTIyAJ0vTPQI5AIiARKKQISIIspA9GDksiIBEwPQKSIE3/DOQIJAISgUKKwJ+R8BUCerV1NgAAAABJRU5ErkJggg==;" vertex="1" parent="1">
          <mxGeometry x="424" y="291" width="328" height="44" as="geometry" />
        </mxCell>
        <mxCell id="VVkOHHsC4mun2wqV-mM1-12" value="CLIENT" style="sketch=0;pointerEvents=1;shadow=0;dashed=0;html=1;strokeColor=none;labelPosition=center;verticalLabelPosition=bottom;verticalAlign=top;align=center;fillColor=#505050;shape=mxgraph.mscae.intune.device_os" vertex="1" parent="1">
          <mxGeometry x="327" y="20" width="56" height="62" as="geometry" />
        </mxCell>
        <mxCell id="VVkOHHsC4mun2wqV-mM1-18" value="" style="rounded=0;whiteSpace=wrap;html=1;fillColor=none;" vertex="1" parent="1">
          <mxGeometry x="37" y="238" width="733" height="129" as="geometry" />
        </mxCell>
        <mxCell id="VVkOHHsC4mun2wqV-mM1-16" value="" style="endArrow=classic;startArrow=classic;html=1;rounded=0;exitX=0.5;exitY=0;exitDx=0;exitDy=0;entryX=0.5;entryY=1;entryDx=0;entryDy=0;" edge="1" parent="1" source="VVkOHHsC4mun2wqV-mM1-18" target="VVkOHHsC4mun2wqV-mM1-1">
          <mxGeometry width="50" height="50" relative="1" as="geometry">
            <mxPoint x="378.81999999999994" y="203.04999999999995" as="sourcePoint" />
            <mxPoint x="408" y="172" as="targetPoint" />
          </mxGeometry>
        </mxCell>
        <mxCell id="VVkOHHsC4mun2wqV-mM1-17" value="" style="endArrow=classic;startArrow=classic;html=1;rounded=0;entryX=0.5;entryY=1;entryDx=0;entryDy=0;" edge="1" parent="1" target="VVkOHHsC4mun2wqV-mM1-18">
          <mxGeometry width="50" height="50" relative="1" as="geometry">
            <mxPoint x="404" y="467" as="sourcePoint" />
            <mxPoint x="405" y="355" as="targetPoint" />
          </mxGeometry>
        </mxCell>
        <mxCell id="VVkOHHsC4mun2wqV-mM1-22" value="" style="sketch=0;outlineConnect=0;fontColor=#232F3E;gradientColor=none;fillColor=#B0084D;strokeColor=none;dashed=0;verticalLabelPosition=bottom;verticalAlign=top;align=center;html=1;fontSize=12;fontStyle=0;aspect=fixed;pointerEvents=1;shape=mxgraph.aws4.automation;" vertex="1" parent="1">
          <mxGeometry x="410" y="20" width="78" height="78" as="geometry" />
        </mxCell>
        <mxCell id="VVkOHHsC4mun2wqV-mM1-23" value="&lt;font style=&quot;font-size: 48px;&quot;&gt;...&lt;/font&gt;" style="text;html=1;align=center;verticalAlign=middle;resizable=0;points=[];autosize=1;strokeColor=none;fillColor=none;" vertex="1" parent="1">
          <mxGeometry x="486" y="57" width="50" height="30" as="geometry" />
        </mxCell>
        <mxCell id="VVkOHHsC4mun2wqV-mM1-25" value="" style="endArrow=classic;startArrow=classic;html=1;rounded=0;fontSize=48;exitX=0.5;exitY=0;exitDx=0;exitDy=0;" edge="1" parent="1" source="VVkOHHsC4mun2wqV-mM1-1">
          <mxGeometry width="50" height="50" relative="1" as="geometry">
            <mxPoint x="349" y="137" as="sourcePoint" />
            <mxPoint x="401" y="91" as="targetPoint" />
          </mxGeometry>
        </mxCell>
      </root>
    </mxGraphModel>
  </diagram>
</mxfile>
